<?xml version="1.0" encoding="utf-8"?>
<!-- Generator: Adobe Illustrator 24.2.3, SVG Export Plug-In . SVG Version: 6.00 Build 0)  -->
<svg version="1.1" id="Layer_1" xmlns="http://www.w3.org/2000/svg" xmlns:xlink="http://www.w3.org/1999/xlink" x="0px" y="0px"
	 viewBox="0 0 1366 768" style="enable-background:new 0 0 1366 768;" xml:space="preserve">
<style type="text/css">
	.st0{opacity:0.3;}
	.st1{fill:#6E8AC2;}
	.st2{fill:#8096C7;}
	.st3{fill:#6985BF;}
	.st4{fill:#6B8AC9;}
	.st5{fill:#476BB2;}
	.st6{fill:#36548F;}
	.st7{fill:#334A80;}
	.st8{fill:#214282;}
	.st9{fill:#21386E;}
	.st10{fill:#1C3663;}
	.st11{fill:#2B4F94;}
	.st12{fill:#264787;}
	.st13{fill:#294273;}
	.st14{fill:#1F3D78;}
	.st15{fill:#243B6B;}
	.st16{fill:#243863;}
	.st17{fill:#91A3C7;}
	.st18{fill:#8799C4;}
	.st19{fill:#8296C2;}
	.st20{fill:#EDE0C4;}
	.st21{fill:#59523B;}
	.st22{fill:#667D47;}
	.st23{fill:#A1A38F;}
</style>
<g class="st0">
	<g>
		<path class="st1" d="M-24,111.2v1044.4c0,54,36.6,99.4,86.4,112.9h0.1c9.7,2.7,19.9,4,30.4,4h1158.6c56,0,102.8-39.4,114.2-92
			c1.8-8.1,2.7-16.4,2.7-25v-2159.6c0-64.6-52.4-117-117-117H92.9c-64.6,0-116.9,52.4-116.9,117v258.3h-0.3v205.2h0.3v307.4
			c-0.1,0.3-0.1,0.6-0.1,0.9s0,0.5,0.1,0.8v338.2V111.2z"/>
		<path class="st2" d="M1368.4-649v1804.5c0,8.6-0.9,16.9-2.7,25c-11.4,52.6-58.2,92-114.2,92H388c-2.3-1.9-4.6-3.8-6.9-5.8h-0.1
			c-1-0.9-2.1-1.8-3.2-2.7c-73.7-63.4-139.4-136-195.3-215.8h-0.1v-0.1c-10.5-15.1-20.8-30.3-30.6-45.9v-0.2
			c-27.4-43.3-52.1-88.5-73.7-135.4v-0.1c-6.2-13.3-12.2-26.8-17.8-40.4c-3.7-8.7-7.2-17.6-10.6-26.6v-0.1
			c-6.3-16-12.3-32.4-17.8-48.9c-6.2-18.4-12-37.2-17.2-56.1C4.8,659.1-3.6,623.2-10,586.6v-0.1c-1.7-9.7-3.3-19.2-4.9-28.8
			c-0.2-1.2-0.3-2.5-0.5-3.7c-0.3-1.8-0.5-3.6-0.8-5.5v-0.1c-3.3-22.2-5.9-44.7-7.8-67.3V275.5c1-12.8,2.3-25.5,3.9-38v-0.1
			c1.4-11.5,2.9-23,4.7-34.4C15.2-0.2,98.1-186.3,219.3-340.9l1.5-1.9l1.6-2c7-8.9,14.2-17.7,21.5-26.4c6.5-7.8,13.2-15.6,20-23.1
			c1.2-1.5,2.5-3,3.8-4.5c26.6-29.8,54.6-58.1,84.1-85c1.1-1.2,2.4-2.4,3.7-3.4c2.8-2.7,5.7-5.2,8.7-7.7c1.7-1.6,3.4-3.3,5.2-4.6
			c2.9-2.7,6-5.2,9-7.7c1.7-1.6,3.4-3.2,5.1-4.5c1.5-1.5,3.3-2.9,5-4.3h0.1c0.3-0.3,0.6-0.5,0.9-0.8c0.3-0.2,0.5-0.4,0.9-0.8
			c0.3-0.3,0.7-0.5,1-0.9c0.9-0.8,1.9-1.5,2.8-2.2l0.1-0.1c8.1-6.8,16.5-13.5,24.8-20c20.4-16.1,41.3-31.5,62.8-46h0.1v-0.1
			c0.5-0.3,1-0.7,1.5-1c0.9-0.7,1.9-1.3,2.7-1.9c0.2-0.2,0.4-0.3,0.6-0.4c0.4-0.3,0.8-0.5,1.2-0.8c0,0,0,0,0-0.1h0.1
			c28.9-19.5,58.8-37.7,89.6-54.5c14.7-8.3,29.8-16,44.9-23.6h676.7c21.9,0,42.4,5.5,60.5,15.2
			C1362.9-652.4,1365.7-650.8,1368.4-649z"/>
		<path class="st3" d="M1368.4-266.6V857.7c-2.8,0.6-5.7,1.1-8.6,1.6c-33.2,6-67.3,9.2-102.3,9.2c-63.5,0-124.5-10.4-181.7-29.5
			h-0.1c-8.7-2.9-17.4-6-26-9.3h-0.1c-65.6-25.6-125.3-62.9-176.6-109.2c-5.7-5.1-11.3-10.4-16.7-15.8
			c-35.2-34.5-65.9-73.3-91.1-115.8h-0.1v-0.1c-10.9-18.2-20.8-37-29.6-56.5c-4.4-9.6-8.5-19.3-12.3-29.2c-9-23.3-16.6-47.4-22.6-72
			c-1-4.4-2.1-8.7-3-13c-4.5-20.6-7.8-41.5-10-62.8c-0.1-1-0.2-2.1-0.3-3.2c-1.3-12.7-2.1-25.6-2.5-38.5c0-0.1,0-0.1,0-0.2
			c0-0.1,0-0.1,0-0.2v-0.1c-0.2-5.8-0.3-11.7-0.3-17.5c0-14.4,0.5-28.8,1.6-43c0.3-5.1,0.8-10,1.3-15c0.3-2.9,0.6-5.9,0.9-8.8
			c1.4-11.9,3.1-23.7,5.2-35.3c0.6-3.5,1.3-6.9,2-10.4c0.7-3.6,1.5-7.2,2.2-10.8c0.7-3.1,1.4-6.2,2.1-9.3
			c13-55.3,34.1-107.5,62-155.3h0.1c1.4-2.6,2.9-5.1,4.5-7.5c1.1-2,2.3-3.9,3.5-5.8c2.7-4.5,5.5-8.7,8.4-13.1
			c11.5-17.6,24-34.5,37.4-50.6v-0.1c3.4-4.2,6.9-8.3,10.5-12.3c18.3-20.9,38.1-40.4,59.2-58.5c2.1-1.8,4.3-3.7,6.5-5.4
			c43.7-36.3,92.9-66.2,146.2-88.2c2.5-1,5-2.1,7.5-3.1c65.4-26.1,136.9-40.4,211.6-40.4c34.9,0,69.1,3.2,102.3,9.3
			C1362.7-267.7,1365.6-267.2,1368.4-266.6z"/>
		<path class="st4" d="M1368.4,266v161.3h-8.6l-214.3,1.2l-76.7,0.4h-0.4l-308.6,1.7l-59.1,0.3l-676.1,3.7l-40,0.3L-24,435V238.2
			l3.9-0.8l4.7-0.9l321-61.2l37.5,5.2l11.1,1.5l23.4,3.3l25.8,3.6l110.2,15.3l13.2,1.9l95.8,13.4l9.2,1.3l20.3,2.8l9.2,1.3l20.6,2.8
			l6.7,0.9l13.4,1.9l8.1,1.1l38.4,5.3l14,2l16.4,2.2c0,0,3.9,0,11.1,0.1c2.7,0,5.7,0.1,9.1,0.1c17.6,0.2,45.3,0.4,77.2,0.8
			c2.9,0,5.8,0.1,8.7,0.1c15.2,0.2,31.1,0.4,47.2,0.6c3.1,0.1,6.2,0.1,9.3,0.2h1c4,0,8.1,0.1,12.2,0.2c59.9,0.9,118.6,2.1,146.1,3.5
			h0.1c2.5,0.2,4.8,0.3,6.7,0.4c0.1,0,0.2,0.1,0.2,0.1c4.9,0.3,8,0.7,8.9,1c1.3,0.5,3.5,0.9,6.6,1.1h0.2c3.3,0.3,7.2,0.4,11.9,0.4
			c15.8,0.3,38.3-0.6,57.5-1.6h0.3c1.8-0.1,3.5-0.2,5.2-0.3h0.3c14.8-0.9,26.9-1.6,31-1.9h0.3c0.8-0.1,1.2-0.1,1.2-0.1l11.1,1.6h0.1
			l117.6,17.1L1368.4,266z"/>
		<path class="st5" d="M1368.4,332.3v178.4l-8.6,0.3l-22,0.7h-0.3l-34,1.2h-1l-20.4,0.7c0,0,0,0-0.1,0l-2.4,0.1h-0.4l-4.5,0.2
			c-0.1,0-0.1,0-0.1,0l-2.4,0.1h-0.1l-71.7,2.5h-0.7l-7.8,0.3l-3.5,0.1h-0.2l-23.3,0.9h-0.5l-99,3.3h-0.8l-0.3,0.1l-3.5,0.1h-0.1
			l-325,11.1l-750.6,25.5h-0.5L-24,558V332.2l8.6-2.2l10-2.7c0,0,137.2,24.7,149.5,25.9c12.3,1.1,142.5,0,142.5,0l71.9,10.5
			l127-18.3l200.2,10l1.8-0.3l21.7-4.4h0.1l94.6-19c0.1-0.1,0.1-0.1,0.2-0.1c0.1,0,0.3-0.1,0.3-0.1l50.8-10.2l133.1,8.2
			c0,0,29.8,5.8,53.7,10.9l0.1,0.1c0.1,0,0.1,0,0.2,0c5.7,1.2,11.1,2.4,15.7,3.4c0.2,0,0.3,0.1,0.4,0.1c0.7,0.2,1.3,0.3,1.9,0.4h0.1
			c0.1,0.1,0.3,0.1,0.3,0.1c5,1.2,8.6,2.1,9.9,2.7c0.5,0.2,1.9,0.3,4,0.5c0.1,0,0.1,0,0.2,0c3.3,0.3,8.6,0.4,15.2,0.6
			c0,0,0.1,0.1,0.2,0.1s0.2,0,0.2-0.1c0.1,0.1,0.2,0.1,0.3,0.1h0.4c5.2,0.2,11.2,0.3,17.9,0.3h0.9c1.5,0.1,3,0.1,4.5,0.1h0.5
			c2.7,0.1,5.6,0.1,8.5,0.1c0,0,0.1,0.1,0.2,0c2.4,0.1,4.9,0.1,7.5,0.2h0.4c0.1-0.1,0.1-0.1,0.1,0c7.1,0.1,14.5,0.1,22.2,0.2
			c0.1,0,0.1,0,0.2,0c66.1,0.5,147.5,0.3,147.5,0.3l58.2-15.2L1368.4,332.3z"/>
		<path class="st6" d="M1368.4,469.3V656l-8.6,1.1l-5.6,0.7l-0.2,0.1l-44.1,5.7h-0.1l-24.5,3.2h-0.2l-15.7,2.1h-0.4l-43,5.7
			l-1.7,0.2c-0.1,0.1-0.1,0-0.1,0l-2.5,0.3l-0.8,0.1l-14.2,1.9l-0.8,0.1l-36.1,4.7h-0.2l-96.3,12.5l-200.3,26.1l-395.5,51.4h-0.1
			l-64.1,8.4L60.3,826.1l-75.7,9.9L-24,837V443.9c2.9-0.2,5.7-0.3,8.6-0.7c12.9-1.1,25-3.1,33.6-6.3c2-0.9,4.1-1.5,6.4-2.1
			c34.8-9.5,105.4-6.1,108.4-6.1c3.3,0,110.7-30.4,136-29.5c25.3,0.9,200.1,27.7,200.1,27.7l107.2-13.5l121.3,4.7l16.4,0.6
			l45.7,12.1l76.7,20.2c0,0,65.9-17.1,71.9-15.3c3.6,1,93.1,9,163.4,15.1h0.1c40.6,3.6,74.6,6.5,82.1,7.1h0.1c0.1,0.1,0.2,0.1,0.3,0
			c0.8,0.2,1.2,0.2,1.2,0.2s32.2,6.3,75,10.7h0.1c0.8,0.1,1.5,0.2,2.3,0.3c20.3,2.1,43,3.8,65.8,4.2c0.1-0.1,0.2-0.1,0.2,0h4.2
			c0.1,0,0.1,0,0.1,0c19.4,0.3,38.7-0.5,56.6-2.7C1362.8,470.1,1365.6,469.8,1368.4,469.3z"/>
		<path class="st7" d="M1368.4,533.9v396c-2.8-0.2-5.7-0.3-8.6-0.4c-91.9-4.4-189.6-9.1-290-14c-10.1-0.5-20.3-1-30.5-1.5
			c-5.1-0.3-10.4-0.5-15.5-0.8h-0.1c-227.1-11.1-465.1-22.9-678.9-33.5c-94.8-4.6-184.7-9.1-266.8-13.2c-32.5-1.6-63.7-3.2-93.5-4.7
			c-2.9-0.1-5.7-0.3-8.6-0.4v-312c2.5-0.3,5.1-0.6,7.7-0.9h0.1c0.3,0,0.5-0.1,0.8-0.1c146.2-16.2,423.8-41.8,738.7-45.4
			c109.9-1.3,224.4,0.2,339.5,5.7h0.1c34.3,1.5,68.7,3.6,103.1,6.1c0.2-0.1,0.3-0.1,0.5,0c7.3,0.4,14.6,0.9,21.9,1.5h0.3
			c1.1,0.1,2.1,0.2,3.3,0.3c2.5,0.2,4.9,0.3,7.4,0.6h0.6c20.2,1.5,40.4,3.3,60.5,5.1h0.4c12.6,1.2,25.1,2.4,37.6,3.7h0.3
			c6.4,0.7,12.9,1.4,19.3,2.1c0.3,0,0.5,0,0.7,0.1c8.4,0.9,16.7,1.8,25,2.7c0.2,0,0.3,0.1,0.4,0.1l15.7,1.8
			C1362.7,533.2,1365.6,533.6,1368.4,533.9z"/>
		<path class="st8" d="M1368.4,585.4v269.1l-8.6-0.7l-17.7-1.4h-0.2l-19-1.5l-41.9-3.3l-19-1.5l-10.4-0.9h-0.4l-170.6-13.3l-31-2.4
			h-0.1l-512.5-39.9h-0.1l-123.6-9.6l-248.2-19.4h-0.2L31.9,750.5l-47.3-3.7l-8.6-0.7v-160c2.8,0,5.7,0.1,8.6,0.2
			c1.7,0.1,3.5,0.1,5.3,0.2h0.1c119.5,3.6,301.4,9.7,301.4,12.9c-0.8,4.7,81.6,12.5,81.6,12.5l135-14.1h175.9l81.4-8.9h0.1
			l174.4-19.4l164.7,27.9l0.3,0.1l3.4,0.5l3.7,0.7h0.3l4.5,0.8l22.2-0.9h0.2l20.1-0.8l28-1h0.6l78.3-3h0.9l1.9-0.1h0.2l14.8-0.5h0.1
			l0.3-0.1h0.1l4.7-0.2h0.3l47.2-1.8h0.1l9.9-0.3l11.9-2.9h0.2l1.4-0.3L1368.4,585.4z"/>
		<g>
			<g>
				<path class="st9" d="M1091.4,349.8c-0.4,10.5,7.9,14.4,25.1,11.6c10.4-7.9,23.1-18.9,28-30.7l0.8-2.6c3.1-15.6,3-25.2,0.8-40.4
					c-0.4-2.6-1-5.1-2-7.6c-0.9-2-2-3.7-3.7-4.6c-2.3-1.2-5.1,0-6.1,2.3c-4,10.1-7.7,19.9-14.5,28.8c-13.6,12.5-20,27.4-28.3,43.2
					L1091.4,349.8z"/>
				<path class="st9" d="M1092.1,349.5c-0.4,10.4,7.8,14.3,24.7,11.6c10.2-7.8,22.6-18.7,27.5-30.5l0.8-2.6
					c3-15.5,2.9-25.1,0.8-40.2c-0.4-2.5-1-5.1-2-7.5c-0.8-2-1.9-3.6-3.6-4.6c-2.2-1.2-5,0-6,2.3c-3.9,10-7.5,19.8-14.2,28.6
					c-13.3,12.3-19.6,27.2-27.8,42.9L1092.1,349.5z"/>
				<path class="st9" d="M1084.6,340.8c5.1-16-0.3-20.2-9.8-23.5c-22.9-8.1-24-20.6-21.9-33.9c1.6,16.5,11.4,23.6,20.2,25.3
					c5.9,1.1,11.2,2.6,16,4.8c7.1,3.3,7,6.6,15.9,2.1c5.3-2.7,8.9-7.1,9.5-14.1c-1.5-12.2,1.2-24.4,11-36.7
					c-11.6,25.4-3.5,27.2-5.2,40.8c15.5,3.6,30-2.4,40.2-23.6c23.1-54,1.3-64.6,33-100.7c-20.3,30.7-11.7,58.4-21.6,91.7
					c-4.5,12.7,4.3,13,15.3,3.4c15.9-13.9,27.8-41.9,33.1-82.1c2.1-21.5,11.5-39.2,23.3-55.6c-37.6,75,20,77.8,49.5,8.7
					c-13.4,53.5-37.8,49.4-56.7,74.2c-8.2,9.8-15,22.8-21.9,35.3c-15.8,28.6-29.6,44.9-57.2,54.4c-24.2,8.4-46.5,6.2-55.2,35.9
					C1099.2,352.5,1083.1,348.4,1084.6,340.8L1084.6,340.8z"/>
				<path class="st9" d="M1084.2,341.2c5.1-16-0.3-20.2-9.8-23.5c-22.9-8.1-23.6-21-21.5-34.2c1.6,16.5,11,24,19.7,25.7
					c5.9,1,11.2,2.6,16,4.8c7.1,3.3,7,6.6,15.9,2.1c5.3-2.7,8.9-7.1,9.5-14.1c-1.5-12.2,1.7-24.8,11.4-37.1
					c-11.6,25.3-3.9,27.5-5.7,41.1c15.5,3.7,30-2.4,40.2-23.5c23.1-54,1.6-64.9,33.3-101c-20.3,30.7-12.1,58.7-21.9,92
					c-4.5,12.7,4.3,13,15.3,3.4c15.9-13.9,27.8-41.9,33.1-82.1c2.1-21.5,11.9-39.6,23.7-55.9c-37.6,74.9,20,77.8,49.5,8.6
					c-13.4,53.6-38.2,49.9-57.1,74.6c-8.2,9.8-15,22.8-21.9,35.3c-15.8,28.6-29.6,44.9-57.2,54.4c-24.2,8.4-46.5,6.1-55.2,35.9
					C1098.7,352.9,1082.6,348.7,1084.2,341.2L1084.2,341.2z"/>
				<path class="st9" d="M1184.5,482.9c-1,0-5.7,10-6.4,11.2c-2,3.5-4.1,7.1-6,10.6c-3.7,6.5-7.4,13.1-10.9,19.8
					c-4,7.6-7.9,15.5-11.2,23.3c-1.1,2.7-1.9,5.7-2.8,8.5c-0.4,1.6-0.8,3.1-1.3,4.6c-1.1,3.7-3.8,8.7-3.9,12.6
					c-2.6,8.3-4.2,16.6-5.3,25.2c-1.6,12.3-1.3,24.3-1.6,36.5c0-1.2-5.1-5-6.1-5.9c-2.1-1.9-4.2-3.9-6.3-5.8l-1.5-1.3
					c0.8,2.6,1.4,5.2,1.6,8.2c-16-5.2-26.6-18.2-33.4-35.7l-3.1-2.6c0.2,3,0.3,5.9-0.5,8.7c-4.4-8.7-10.8-15.5-15.2-24.2
					c-1.1-1.4-2.3-2.8-3.5-4.1c0.3,3.2,0.4,6.4-0.9,9.1c-4.8-12.9-13.3-22.5-16.3-36.3c-0.3-1.2-1-2.4-1.4-3.6
					c-0.8,2.3-1.5,4.6-2.2,6.9c-0.3-10.2-4.4-19.2-2.8-29.4l-0.1-1.1c-2,2.4-3.6,3.3-6.5,4.4c2.2-0.8,3.4-11.7,3.7-13.8
					c0.8-4.8,1.3-21,1.8-25.9c0.8-8.4,1.6-11.5,3.5-20.1c2-9,3.4-9.5,5.1-19.4c1.1-6.3,0-11.9-4.5-16.4c-7.3-7.2-12.8-8.8-19.7-15
					c-15.7-1.5-25.6-5.1-32.6-19c-7.2-6.8-7.5-15.1-0.7-22.4c3.4-3.6,9.3-3,13.9-3.7c7.5-1.2,11.3-4.1,15-10.3
					c4.1-7,10.4-12.8,18-16.5c13.8-6.8,29.5-4.7,44.1-2.8c12.7,1.6,22.5,5.9,30.5,15.4c7.4,8.8,10.4,19.8,10.6,30.9
					c0.2,11.6-2.9,22.7-2.5,34.3c0.4,11.3,2.1,22.8,6.8,33.3C1139.4,472.5,1160.6,482.9,1184.5,482.9L1184.5,482.9z"/>
				<path class="st9" d="M1184.5,483.3c-1,0-5.7,10-6.4,11.2c-2,3.6-4.1,7.1-6,10.6c-3.7,6.5-7.4,13.1-10.9,19.8
					c-4,7.6-7.9,15.5-11.2,23.3c-1.1,2.7-1.9,5.7-2.8,8.6c-0.4,1.5-0.8,3.1-1.3,4.5c-1.1,3.7-3.8,8.7-3.9,12.6
					c-2.6,8.4-4.2,16.6-5.3,25.2c-1.6,12.3-1.3,24.3-1.6,36.6c0-1.3-5.1-5-6.1-6c-2.1-1.9-4.2-3.9-6.3-5.8l-1.5-1.3
					c0.8,2.6,1.4,5.3,1.6,8.2c-16-5.2-26.6-18.2-33.4-35.6l-3.1-2.7c0.2,3,0.3,5.9-0.5,8.7c-4.4-8.7-10.8-15.5-15.2-24.2
					c-1.1-1.4-2.3-2.7-3.5-4.1c0.3,3.2,0.4,6.4-0.9,9.1c-4.8-12.9-13.3-22.5-16.3-36.3c-0.3-1.2-1-2.4-1.4-3.6
					c-0.8,2.3-1.5,4.6-2.2,6.8c-0.3-10.2-4.4-19.2-2.8-29.3l-0.1-1.1c-2,2.4-3.6,3.3-6.5,4.4c2.2-0.8,3.4-11.7,3.7-13.8
					c0.8-4.8,1.3-21,1.8-25.9c0.8-8.4,1.6-11.5,3.5-20.1c2-9,3.4-9.5,5.1-19.4c1.1-6.3,0-11.8-4.5-16.4c-7.3-7.2-12.8-8.8-19.7-15
					c-15.7-1.5-25.6-5.1-32.6-19c-7.2-6.8-7.5-15.1-0.7-22.3c3.4-3.7,9.3-3,13.9-3.7c7.5-1.2,11.3-4.1,15-10.3
					c4.1-7,10.4-12.9,18-16.6c13.8-6.8,29.5-4.6,44.1-2.8c12.7,1.6,22.5,5.9,30.5,15.4c7.4,8.8,10.4,19.8,10.6,30.9
					c0.2,11.6-2.9,22.8-2.5,34.3c0.4,11.3,2.1,22.8,6.8,33.3C1139.4,472.8,1160.6,483.3,1184.5,483.3L1184.5,483.3z"/>
			</g>
			<g>
				<path class="st9" d="M1053.2,346.4c-5.1-12.4-11.9-17.5-21.3-15.9c-22.6,3.7-30-5.9-35-17.6c9.7,12.6,21.3,14,29.2,11.4
					c5.3-1.8,10.4-2.9,15.4-3.3c7.4-0.5,9,2.2,14-5.5c2.9-4.5,3.5-9.7,0.4-15.6c-7.5-9.2-11.5-20.3-9.9-34.6
					c3.6,25.7,11.1,23.5,16.6,35.3c14.4-4,23-15.4,20.4-37.1c-9-54-32-52.8-24.9-96.2c-0.6,34,20.5,52.5,29.5,83.8
					c2.9,12.3,10.1,8.6,14.1-4.2c5.7-18.3,1-46.2-15.3-81.1c-9.2-18.3-10.8-36.9-9.6-55.4c8,77.4,55.9,53.8,44.4-15.3
					c16.6,49.2-5.2,56.9-7.8,85.4c-1.6,11.6-0.4,25.1,0.5,38.3c1.8,30.2-0.9,49.5-18.3,69.7c-15.2,17.6-33.8,28.3-25.5,56.2
					C1068.6,349.9,1055.2,351.7,1053.2,346.4L1053.2,346.4z"/>
				<path class="st9" d="M1053.2,346.8c-5.1-12.4-11.9-17.5-21.3-15.9c-22.6,3.7-30-6.3-35-17.9c9.7,12.6,21.3,14.3,29.2,11.7
					c5.3-1.8,10.4-2.9,15.4-3.3c7.4-0.5,9,2.2,14-5.5c2.9-4.5,3.5-9.7,0.4-15.6c-7.5-9.2-11.5-20.3-9.9-34.6
					c3.6,25.7,11.1,23.5,16.6,35.3c14.4-4,23-15.4,20.4-37.1c-9-54-32-53.2-24.9-96.6c-0.6,34,20.5,52.8,29.5,84.1
					c2.9,12.3,10.1,8.6,14.1-4.2c5.7-18.3,1-46.2-15.3-81.1c-9.2-18.3-10.8-37.2-9.6-55.7c8,77.4,55.9,53.8,44.4-15.3
					c16.6,49.2-5.2,57.3-7.8,85.8c-1.6,11.6-0.4,25.1,0.5,38.3c1.8,30.2-0.9,49.6-18.3,69.7c-15.2,17.6-33.8,28.3-25.5,56.2
					C1068.6,350.2,1055.2,352.1,1053.2,346.8L1053.2,346.8z"/>
				<path class="st9" d="M1071,350c1.1,10.1-6.7,14.4-23.7,12.7c-10.7-7-23.8-16.7-29.4-27.9l-0.9-2.5c-4.1-14.9-4.7-24.2-3.6-38.9
					c0.2-2.5,0.6-5,1.5-7.4c0.7-2,1.7-3.7,3.3-4.7c2.1-1.2,5-0.3,6.1,1.9c4.6,9.5,8.9,18.7,16.2,26.9c14.1,11.1,21.4,25.1,30.5,39.8
					L1071,350z"/>
				<path class="st9" d="M1070.2,349.7c1,10-6.6,14.3-23.3,12.6c-10.5-6.9-23.4-16.6-28.9-27.7l-0.9-2.5c-4-14.8-4.6-24-3.5-38.6
					c0.2-2.5,0.6-5,1.4-7.4c0.7-1.9,1.6-3.6,3.2-4.6c2.1-1.2,4.9-0.3,6,1.9c4.6,9.4,8.7,18.6,15.8,26.6c13.9,11.1,21.1,25,30.1,39.6
					L1070.2,349.7z"/>
				<path class="st9" d="M1071,350c1.1,10.1-6.9,14.4-23.7,12.7c6.1-11.2-14.8-18.5-17-37.5c-4.4-38.3-9.3-48.4-15.5-39.2
					c0.5-1.8,1.7-3.7,3.3-4.7c2.1-1.2,5-0.3,6.1,1.9c4.6,9.5,8.9,18.7,16.2,26.9c14.1,11.1,21.4,25.1,30.5,39.8L1071,350z"/>
				<path class="st9" d="M1071.1,349.6c1.1,10.1-6.3,14.8-23.8,13.1c6.1-11.2-14.7-18.9-16.9-37.9c-4.4-38.3-9.3-48.5-15.5-39.2
					l0.1-0.1c2.2-7.3,6.9-7.7,10.3-0.7c3.9,8.1,7.7,15.9,13.6,23c1,1.2,2.2,2.3,3.5,3.4c12.9,10.9,19.9,24.3,28.7,38.2L1071.1,349.6
					z"/>
				<path class="st9" d="M1315,582.4c-0.6,16.4-5.6,33.6-15.8,50.8l-13,11.3l-0.6,0.5l-22.1,19.2c-1.6,6.8-2.4,13.8-2.7,21.2v0.3
					l-0.1,1.1c-0.2,3.2-0.2,6.6-0.1,10c0.2,5.1,0.6,10.3,1.1,15.6c1.1,4.7,2.2,8.5,2.8,11.9v0.1l0.2,0.7c0.3,1.4,0.5,2.9,0.5,4.2
					c0.1,1,0.1,2,0,3l-0.3,2c-2.6,16.5-8.9,20-9.7,41.8c-0.1,1.4-0.1,2.9-0.1,4.4c-0.1,3.8,0,7.5,0.1,11.3
					c0.7,20.3,3.2,40.8,4.3,61.2l-19.4-5.9c0.1-9.1-0.1-18.4-0.5-27.7c-0.3-5.9-0.6-11.7-1-17.6l-0.1-0.8c-1.5-20.2-3.7-40.4-5-60.6
					l-0.1-0.6v-0.2c-0.3-3.9-0.5-7.8-0.7-11.8l-1.8-21.5l-0.1-1.1l-0.9-11.4c-3.1-13.1,0.4-16.1-11.8-17.4c-6.4-0.7-13-2.4-19.5-5.5
					l-1-0.5l-0.9-0.4c-7-2.6-8.5,0.2-14.5,8.1c-2.9,3.7-5.4,7.9-7.4,12.6c-2.8,9.8-4.1,20.3-4.4,31.4c-0.1,4.3-0.1,8.6,0.2,13
					c0.1,3.1,0.3,6.2,0.6,9.4c1.6,4.6,2.2,9.1,2.1,13.5l-0.1,1.9c-0.4,5.8-1.9,11.4-4.2,16.8c-3.8,16.6-6.3,32.1-7.7,46.6l-16.7-5
					l-0.2-0.1c1.1-10.3,1.7-20.7,2.1-31c0.2-3.1,0.2-6,0.3-9v-0.2v-0.8c-0.4-2.9-0.6-5.6-0.7-8.3c-0.2-2.5-0.1-4.9,0.1-7.3
					c0.3-5.8,1.1-11.4,2.5-17c0.6-7,1-13.9,1.1-20.8c0.2-6.3,0.1-12.4-0.2-18.5c-0.4-12.8-1.7-25.3-3.7-37.7
					c-3.3-21.3-4.6-23.6-11.1-33.3c-1.9-3-4.4-6.7-7.5-11.9c-7.5-12.5-12.2-26.2-13.2-40.6c-0.2-2.2-0.2-4.3-0.2-6.4
					c0-1.7,0.1-3.4,0.2-5c0.8-24.1,6.8-23.8,20.8-43.1c3.7-5,7.1-10.3,10.1-15.9c8.5-15.5,3.4-9.8,17.7-20.3
					c11.3-8.3,7.2-7.7,18.9-7.5h0.7h1.5l0.5,0.1h18.6c67.1,4.4,109.7,43.3,111.8,92C1315.1,577.7,1315.2,580.1,1315,582.4
					L1315,582.4z"/>
				<path class="st10" d="M1315,582.4c-0.4,16.6-5.5,34.2-15.8,51.8l-12.6,10.9l-0.6,0.5l-22.5,19.5c-1.1,4.8-1.9,9.8-2.4,14.8
					c-0.1,1.8-0.3,3.6-0.3,5.5v0.3l-0.1,1.1c-0.2,3.2-0.2,6.6-0.1,10c0.2,5.3,0.5,10.9,1.1,16.5c1.1,4.5,2.1,8.1,2.7,11.4l0.1,0.7
					c0.4,1.4,0.5,2.6,0.6,3.9c0.1,1,0.1,2,0,3l-0.3,2.9c-2.5,16.2-8.7,19.9-9.7,40.9c-0.1,1.4-0.1,2.9-0.1,4.4
					c-0.1,3.8,0,7.5,0.1,11.3c0.2,5,0.4,10.1,0.8,15.3c0.7,10.2,1.6,20.4,2.4,30.5c0.4,5.1,0.8,10.2,1,15.4l-19.4-5.9
					c0.1-9.1-0.1-18.4-0.5-27.7c-0.3-5.8-0.6-11.6-1.1-17.5l-0.1-0.8c-1.5-20.2-3.7-40.4-5-60.5v-1c-0.3-3.6-0.5-7.2-0.7-10.9
					l-1.9-22.5l-0.1-1.2l-0.8-10.4c-3.1-13.1,0.4-16.2-11.8-17.5c-6.4-0.7-13-2.4-19.5-5.3l-0.2-0.1l-1.1-0.4
					c-7.6-3.3-9-0.3-15.2,7.7c-2.9,3.8-5.4,8-7.4,12.6c-2.6,9.5-4.1,19.7-4.4,30.5c-0.1,4.3-0.1,8.6,0.2,13
					c0.1,3.4,0.3,6.8,0.6,10.3c1.1,3.2,1.7,6.4,2,9.5c0.1,1,0.1,2.1,0.1,3.1l-0.1,1.9c-0.2,6.1-1.8,11.9-4.2,17.7
					c-3.7,16.2-6.2,31.5-7.6,45.7l-0.1-0.1l-16.7-5c0.6-6.9,1.1-13.9,1.5-20.8c0.2-3.4,0.3-6.9,0.4-10.3c0.2-3.1,0.2-6,0.3-9v-0.2
					c-0.5-3.1-0.7-6.1-0.7-9.1c-0.2-2.5-0.1-4.9,0.1-7.3c0.4-5.5,1.3-10.8,2.5-16.1c0.3-3.7,0.6-7.3,0.7-10.9
					c0.2-3.6,0.4-7.2,0.4-10.8c0.2-6.3,0.1-12.4-0.2-18.5c-0.3-6.3-0.7-12.5-1.3-18.6c-0.6-6.1-1.4-12.2-2.4-18.2
					c-3.3-21.3-4.7-23.6-11.1-33.3v-0.1c-1.9-3-4.3-6.6-7.4-11.8c-7.7-12.8-12.3-26.7-13.2-41.5c-0.2-2.2-0.2-4.3-0.2-6.4
					c0-1.7,0.1-3.4,0.2-5c0.1-1.6,0.1-3,0.3-4.3c1.6-19,7.6-20.2,20.6-37.9c3.7-5,7.1-10.4,10.1-16c8.5-15.5,3.4-9.8,17.7-20.2
					c11.7-8.6,6.9-7.6,20.4-7.5l0.2,0.1l0.1-0.1c1,0.1,2,0.1,3.1,0.1h16.4c66.7,4.4,109.2,42.9,111.8,91.1
					C1315.1,577.7,1315.2,580.1,1315,582.4L1315,582.4z"/>
				<path class="st9" d="M1330.8,613.3l-0.1,2.2l0.1,1.5c1.1,6.1,1.9,12.7,2.1,19.6c0.2,3.5,0.3,7.1,0.1,10.8
					c-0.5,12.1-3.2,24.9-9.4,38.3c-6.3,13.5-13.9,27.8-14.4,42.1l-0.1,2.8c6.4,39.5,6.6,84.1,11.6,124.7l-0.2,0.1l-19.4,1.4
					c-0.1-2.9-0.1-5.7-0.2-8.5c-1.1-38.7-6.8-77.4-15.2-116.1c-2.9-5.6-4.4-11.3-4.7-16.9l-0.1-1.7c-0.2-8.2,2.2-16.3,6.5-24.3
					l0.1-0.1c-0.1-2.1-0.2-4.2-0.2-6.2c-0.2-4.1-0.2-8.2,0-12.2c0.2-7.1,1.1-14.1,2.8-21.1l0.2-0.9c-1.3-1.1-2.5-2.2-3.7-3.4
					l-0.5-0.5c-6.3-6.1-10.9-13.2-13.8-21.3c-8,1.9-15.9,1.8-23.9,0.1c-1.7,10.6-4.4,20.7-8.5,30.2l0.3,0.4
					c7.4,10.2,10.3,23.7,20.6,31.7c1.6,1.2,3.3,2.3,5.2,3.3c4.1,3.6,5.8,8.1,5.6,13.2c-0.1,4.5-1.5,9.3-3.8,14.5
					c-1.1,2.5-2.2,5-3.3,7.5v0.1l-0.1,0.3c-10.5,24.6-19,50.1-25.9,76.2l-0.1,0.1c-3.5,13.1-6.6,26.3-9.4,39.7l-0.6,2.9l-16.7-5.1
					l-0.3-0.1c9.7-32.3,15.3-65.7,21.9-98.7v-0.2c0.3-1.5,0.6-3,0.9-4.5c1.5-7,2.3-11.9,2.4-15.8c0.1-5.7-1.5-9.2-5.4-13.8l-0.4-0.3
					l-0.1-0.1c-13-10.1-24-21-32.4-33.3l-0.9-1.3c-8.7-13-14.1-27.4-15.5-43.8c-1.4-16.7,1.1-8.6-9.7-21.4
					c-9.2-10.9-13.7-23-13.7-36.2l0.1-2.2c0.4-14.6,6-30.6,16.6-47.8c8.5-13.9,5.9-15.7,11-28.7c0.9-2.1,1.8-4.1,2.8-5.8l0.5-0.9
					c8.2-13.8,23.2-21.1,46.7-20.6l36.8,6.8c43,9.5,34.9,26.2,53,70.3c8.8,16.5,11.4,27.8,11.3,37l-0.1,2
					C1336.8,591.3,1331.3,599.9,1330.8,613.3L1330.8,613.3z"/>
				<path class="st9" d="M1330.8,613.3l-0.1,2.2l0.1,1.5v1c1,5.9,1.8,12.1,2.1,18.5c0.2,3.5,0.3,7.1,0.1,10.8
					c-0.4,12.4-3,25.7-9.4,39.4c-6.2,13-13.5,27-14.4,41l-0.1,2.8v0.9c6.4,39.2,6.6,83.5,11.5,123.9l-19.4,1.4
					c-0.1-2.9-0.1-5.7-0.2-8.5c-1.3-38.3-6.9-76.8-15.2-115.1c-3.1-6-4.6-12-4.7-17.9l-0.1-1.7c0-1,0.1-1.9,0.1-3
					c0.6-6.9,2.9-13.6,6.4-20.3l-0.1-1l-0.1-2.2c-0.1-1.4-0.1-2.8-0.1-4.1c-0.2-4.1-0.2-8.2,0-12.2c0.4-7,1.2-14,3-21l-0.2-0.2
					c-1.4-1.2-2.9-2.5-4.2-3.8l-0.4-0.5c-6-6-10.4-12.8-13.2-20.7c-8,1.9-15.9,1.8-23.9,0.1c-1.6,10.3-4.3,20.3-8.2,29.6l-0.3,0.7
					c7.6,10.3,10.3,23.9,20.8,32.1c1.6,1.2,3.3,2.3,5.3,3.3c3.8,3.3,5.5,7.4,5.6,12.2c0.2,4.7-1.4,9.9-3.8,15.6
					c-1.1,2.4-2.2,4.8-3.1,7.2l-0.2,0.3c-10.5,24.6-19,50.1-25.9,76.2l-0.1,0.2c-3.5,13.2-6.6,26.5-9.5,40l-0.3,1.8l-0.3-0.1
					l-16.7-5.1c9.5-32,15.1-65.1,21.7-98l0.1-0.2c0.3-1.4,0.6-2.8,0.8-4.3c1.5-6.7,2.3-11.6,2.3-15.4l0.1-1.5v-0.3
					c-0.2-4.9-1.8-8.2-5.4-12.4l-0.3-0.3l-0.1-0.1c-13.6-10.5-25.1-22.1-33.6-34.9l-0.7-1.2c-7.1-11-11.8-23-13.7-36.3l-0.1-0.4
					l-0.3-1.5c-0.2-1.5-0.5-2.8-0.6-4.2c-1.4-16.8,1.1-8.6-9.7-21.4c-9.5-11.3-13.9-23.7-13.7-37.3l0.1-2.2
					c0.7-14.3,6.3-29.9,16.6-46.7c8.5-14,5.9-15.7,11-28.8c1-2.5,2.2-4.8,3.4-6.9l0.6-0.9c8.3-13,23.1-19.9,46-19.5l36.8,6.8
					c43,9.5,34.9,26.2,53,70.3c7.4,13.9,10.4,24,11.2,32.5c0.1,1.2,0.1,2.3,0.1,3.4l-0.1,2C1337.1,591.5,1331.6,600.1,1330.8,613.3
					L1330.8,613.3z"/>
				<path class="st9" d="M1276.1,523.3c7.8,10.5,7.5,23.5,10.4,31.7c-1.9-0.9-2.4-3.6-3.6-5.3c2.2,9.5-2.3,17.6-1.3,26.6
					c-1.6-0.7-2.1-2.8-2.5-4.8l-0.9,2.1c-0.7,8.4-4.7,8.9-6.6,14.4c-0.9-0.6-0.9-2.1-0.9-3.6l-0.7,0.7c-1.5,4.4-4.5,7.6-3.8,11.8
					c-2.5-1.8-3.3-3.7-4.1-7.1c-1.1,5,3.5,6.9,3.4,13.9c-6.4-3.8-17.6-2.5-19.3-15.6l-0.8-0.6c-0.2,2.2-0.1,4.3-0.6,5.6
					c-1.8-4.9-5.2-7.6-6.9-12.7l-1.6-2.3c-0.1,1.9-0.3,3.6-1.1,4.6c-1.2-6.8-5.5-12.6-4.9-20l-0.4-1.9l-1.8,3.3c1.4-5.4-1-10,1-15
					l0.1-0.5c-1.2,1.2-2,1.5-3.6,1.8c2.4-3.7,3.8-15.3,9.7-25.1C1246.1,507.4,1264,507,1276.1,523.3L1276.1,523.3z"/>
				<path class="st10" d="M1276.1,523.8c7.8,10.5,7.5,23.5,10.4,31.7c-1.9-0.9-2.4-3.6-3.6-5.3c2.2,9.5-2.3,17.6-1.3,26.6
					c-1.6-0.7-2.1-2.8-2.5-4.8l-0.9,2.1c-0.7,8.4-4.7,8.8-6.6,14.4c-0.9-0.6-0.9-2.1-0.9-3.6l-0.7,0.7c-1.5,4.4-4.5,7.5-3.8,11.8
					c-2.5-1.8-3.3-3.7-4.1-7.1c-1.1,5,3.5,6.9,3.4,13.9c-6.4-3.8-17.6-2.5-19.3-15.6l-0.8-0.6c-0.2,2.1-0.1,4.3-0.6,5.6
					c-1.8-4.9-5.2-7.6-6.9-12.7l-1.6-2.3c-0.1,1.9-0.3,3.6-1.1,4.6c-1.2-6.9-5.5-12.6-4.9-20l-0.4-1.9l-1.8,3.3c1.4-5.4-1-10,1-15
					l0.1-0.5c-1.2,1.2-2,1.5-3.6,1.8c2.4-3.6,3.8-15.2,9.7-25.1C1246.1,507.9,1264,507.5,1276.1,523.8L1276.1,523.8z"/>
			</g>
		</g>
	</g>
	<path class="st11" d="M1368.4,717v438.5c0,8.6-0.9,16.9-2.7,25l-8.6-0.9l-245.5-27.5l-137.3-15.3l-99.4-11.1l-23.3-2.7h-0.4
		l-31.2-3.5h-0.1L682.4,1104l-195.6-21.9l-149.6-16.7c-0.1,0-0.1,0-0.1,0l-154.6-17.3h-0.1l-196.1-22h-0.1l-1.5-0.2l-8.6-0.9V700.6
		l8.6-1.4l30.1-4.8l292.4-46.8l177.4,41l144.4-23.4l76.9,6.3l83.2,28.2l61.2,6.3l6.2-1.5l67.7-16l149.4,5.7l18.5,0.7l72.3,22H1368.4
		z"/>
	<g>
		<path class="st12" d="M1116.6,1263.9c0,2.9-0.1,5.8-0.2,8.6H92.9c-10.5,0-20.8-1.4-30.4-4h-0.1c-49.7-13.5-86.4-58.9-86.4-112.9
			V824.1c2.8-0.9,5.7-1.9,8.6-2.8c20.7-6.9,42.7-14.3,65.1-21.8c39-13,79.2-26.5,115.4-38.6c0.1,0,0.1,0,0.2-0.1
			c36.6-12.3,69.3-23.2,92.9-31.1c23.6-7.9,37.9-12.7,37.9-12.7l181.5,54.8h0.1l59.4,18h0.1l259.9,78.5l13.9,4.2l208.6,15.8
			l20.7,1.5l20.4,1.5c0,0,3.9,9.7,9.2,24.2c9.9,27.2,25,71.2,28.5,99.8c1.5,12.9,4.7,40.9,8,75c1.8,19.2,3.6,40.3,5.3,61.7
			C1114.6,1192.1,1116.9,1233,1116.6,1263.9z"/>
		<path class="st13" d="M988.4,1026l-6.9,54.7l-3.3,25.9v0.1l-3.8,29.9l-12.6,98.4c0,0-0.1,10.9-0.4,28.8c0,2.7,0,5.6-0.1,8.6H92.9
			c-10.5,0-20.8-1.4-30.4-4h-0.1c-49.7-13.5-86.4-58.9-86.4-112.9v-126.7c2.8-0.9,5.7-1.5,8.6-2.3c0.5-0.2,1-0.3,1.5-0.4h0.1
			c71.9-18.8,149.8-37.4,154.4-31.1c1.4,1.8,5.2,4.2,11,7h0.1c32.2,16,120.8,44.8,120.8,44.8s16.5-3.6,41.6-8.9
			C393.7,1021,560,986.7,563,993.6c3.9,9.1,169.5,53.1,169.5,53.1l209.5-17h0.1L988.4,1026z"/>
		<path class="st14" d="M92.9,1272.5c-10.5,0-20.8-1.4-30.4-4l21.1-5h0.1l6.8-1.6l8.9,2.1l37.2,8.6H92.9z"/>
		<path class="st14" d="M637.6,1263.4c0,0-0.2,0.2-0.5,0.5c-1,1.1-3.9,4.1-8.1,8.6H358.4l22.6-5.8h0.1l10.6-2.7l111.6-28.8
			l95.5,20.2L637.6,1263.4z"/>
	</g>
	<path class="st15" d="M1368.4,1056.9v98.6c0,8.6-0.9,16.9-2.7,25c-11.4,52.6-58.2,92-114.2,92H589.3l4.7-8.6l4.8-8.7v-0.1
		l83.5-151.2l12.1-21.9l8.2-15l33.7,15l83.5,37.2h0.1l13,5.8l18.2-2.2h0.1l0.3-0.1l27.6-3.5l98.9-12.6h0.1l128.1-16.4l253.6-32.3
		L1368.4,1056.9z"/>
	<g>
		<path class="st16" d="M1359.9,855.6l8.6-0.6v300.6c0,8.6-0.9,16.9-2.7,25c-11.4,52.6-58.2,92-114.2,92H771.7l3.3-4.7l2.7-3.9
			l13.3-19l0.1-0.2l0.3-0.4l2.1-3l0.3-0.3l4.2-6.1l4.8-6.7v-0.2l8.7-12.1l2.5-3.6l0.1-0.1l1.8-2.7l0.3-0.3l6.9-10l2.9-4.1l2.4-3.4
			l8.3-11.9l29.1-41.3v-0.2l5.5-7.8l3.7-5.1l4.3-6.2l0.1-0.1l26.1-37.1l36.7-52.3v-0.1l81.6-116.4l8.2-11.7l8.3-11.8l35.6-50.8
			l4.9-6.9l22.3-31.8l63.5,19.3h0.3l16.6,5.1v0.1h0.1l50.1,15.3h0.3l16.7,5.1l0.2,0.1l0.6,0.1l0.3,0.1h0.1l10.3,3.2v0.1l19.5,5.8
			l17.8,5.4l23.9-1.7l19.4-1.4h0.2L1359.9,855.6z"/>
	</g>
	<g>
		<path class="st17" d="M892.1-464.8c-2.9,0-5.2,2.1-5.2,4.8c0,2.6,2.3,4.7,5.2,4.7c2.9,0,5.2-2.1,5.2-4.7
			C897.4-462.6,895.1-464.8,892.1-464.8L892.1-464.8z"/>
		<path class="st17" d="M799.1-471.6c-3.6,0-6.5,2.6-6.5,6c0,3.3,2.9,5.9,6.5,5.9c3.6,0,6.6-2.6,6.6-5.9
			C805.7-469,802.7-471.6,799.1-471.6L799.1-471.6z"/>
		<path class="st17" d="M669.8-565.4c-2.2,0-4,1.6-4,3.6c0,2,1.8,3.6,4,3.6l1.7-0.4l-0.8,2.7c0,3.2,2.9,5.8,6.4,5.8
			c3.5,0,6.4-2.6,6.4-5.8c0-3.2-2.9-5.8-6.4-5.8c-1.3,0-2.5,0.4-3.6,1l0.3-1.2C673.8-563.8,672-565.4,669.8-565.4L669.8-565.4z"/>
		<path class="st17" d="M597.1-614.7c-2.9,0-5.2,2.1-5.2,4.8c0,2.6,2.3,4.7,5.2,4.7c2.9,0,5.2-2.1,5.2-4.7
			C602.3-612.6,600-614.7,597.1-614.7L597.1-614.7z"/>
		<path class="st17" d="M603.2-554.8c-1.3,0-2.3,0.9-2.3,2.1c0,1.1,1,2.1,2.3,2.1c1.3,0,2.3-0.9,2.3-2.1
			C605.5-553.8,604.5-554.8,603.2-554.8L603.2-554.8z"/>
		<path class="st18" d="M353.1-636c-2,0-3.5,1.5-3.5,3.2c0,1.8,1.6,3.2,3.5,3.2c1.9,0,3.5-1.4,3.5-3.2
			C356.6-634.5,355-636,353.1-636L353.1-636z"/>
		<path class="st17" d="M512.6-480.4c-1.6,0-2.9,1.2-2.9,2.6c0,1.5,1.3,2.6,2.9,2.6c1.6,0,2.9-1.2,2.9-2.6
			C515.5-479.2,514.2-480.4,512.6-480.4L512.6-480.4z"/>
		<path class="st17" d="M767.7-410.1c-3.7,0-6.6,2.7-6.6,6s3,6,6.6,6c3.7,0,6.6-2.7,6.6-6S771.4-410.1,767.7-410.1L767.7-410.1z"/>
		<path class="st17" d="M634.6-388.7c-2,0-3.6,1.5-3.6,3.2c0,1.8,1.6,3.3,3.6,3.3c2,0,3.6-1.5,3.6-3.3
			C638.2-387.3,636.6-388.7,634.6-388.7L634.6-388.7z"/>
		<path class="st17" d="M674-437.3c-1.9,0-3.4,1.4-3.4,3.1c0,1.7,1.5,3.1,3.4,3.1c1.9,0,3.4-1.4,3.4-3.1
			C677.4-436,675.8-437.3,674-437.3L674-437.3z"/>
	</g>
	<polygon class="st17" points="589,-433.3 590.5,-432.1 591.9,-433.3 590.5,-434.6 	"/>
	<g>
		<path class="st17" d="M610.2-508.4c-3.5,0-6.3,2.5-6.3,5.7c0,3.1,2.8,5.7,6.3,5.7c3.5,0,6.3-2.5,6.3-5.7
			C616.5-505.9,613.7-508.4,610.2-508.4L610.2-508.4z"/>
		<path class="st18" d="M281.7-601c-2.1,0-3.7,1.5-3.7,3.4s1.7,3.4,3.7,3.4c2.1,0,3.7-1.5,3.7-3.4S283.8-601,281.7-601L281.7-601z"
			/>
		<path class="st18" d="M129.7-591.6c-1.8,0-3.2,1.3-3.2,2.9c0,1.6,1.5,2.9,3.2,2.9c1.8,0,3.2-1.3,3.2-2.9
			C133-590.3,131.5-591.6,129.7-591.6L129.7-591.6z"/>
		<path class="st18" d="M34.2-519.7c-3.5,0-6.3,2.6-6.3,5.8c0,3.2,2.8,5.8,6.3,5.8c3.5,0,6.4-2.5,6.4-5.8
			C40.6-517.1,37.7-519.7,34.2-519.7L34.2-519.7z"/>
	</g>
	<polygon class="st17" points="109.9,-91.6 111.2,-90.5 112.4,-91.6 111.2,-92.7 	"/>
	<g>
		<path class="st17" d="M224.7-228.5c-3.4,0-6.1,2.5-6.1,5.5c0,3.1,2.7,5.5,6.1,5.5c3.4,0,6.1-2.4,6.1-5.5
			C230.8-226,228.1-228.5,224.7-228.5L224.7-228.5z"/>
	</g>
	<polygon class="st17" points="302.9,-331.7 304.1,-330.6 305.3,-331.7 304.1,-332.7 	"/>
	<g>
		<path class="st18" d="M72.8-567.6c-1.2,0-2.2,0.9-2.2,2c0,1.1,1,2.1,2.2,2.1c1.2,0,2.2-0.9,2.2-2.1C75-566.6,74-567.6,72.8-567.6
			L72.8-567.6z"/>
	</g>
	<polygon class="st18" points="189.2,-414.7 190.7,-413.5 192.1,-414.7 190.7,-416 	"/>
	<g>
		<path class="st17" d="M323.6-310.3c-2.2,0-3.9,1.6-3.9,3.6c0,2,1.8,3.5,3.9,3.5c2.2,0,3.9-1.6,3.9-3.5
			C327.6-308.7,325.8-310.3,323.6-310.3L323.6-310.3z"/>
		<path class="st17" d="M357.9-180c-1.7,0-3.1,1.2-3.1,2.8c0,1.6,1.4,2.8,3.1,2.8c1.7,0,3.1-1.2,3.1-2.8
			C361-178.8,359.6-180,357.9-180L357.9-180z"/>
		<path class="st18" d="M378.8-647.6c-2.7,0-4.9,2-4.9,4.4c0,2.4,2.2,4.4,4.9,4.4c2.7,0,4.9-2,4.9-4.4
			C383.7-645.6,381.5-647.6,378.8-647.6L378.8-647.6z"/>
		<path class="st18" d="M234.2-664.4c-2.1,0-3.8,1.6-3.8,3.4c0,1.9,1.7,3.5,3.8,3.5c2.1,0,3.8-1.6,3.8-3.5
			C238-662.8,236.3-664.4,234.2-664.4L234.2-664.4z"/>
		<path class="st18" d="M16.9-523.1c-2.4,0-4.4,1.8-4.4,4c0,2.2,2,4.1,4.4,4.1c2.4,0,4.4-1.8,4.4-4.1
			C21.3-521.3,19.3-523.1,16.9-523.1L16.9-523.1z"/>
	</g>
	<polygon class="st19" points="1011,58.1 1012.4,59.4 1013.8,58.1 1012.4,56.9 	"/>
	<g>
		<path class="st19" d="M920.6-2.7c-1.9,0-3.5,1.5-3.5,3.2c0,1.8,1.6,3.2,3.5,3.2c2,0,3.5-1.4,3.5-3.2
			C924.1-1.2,922.6-2.7,920.6-2.7L920.6-2.7z"/>
		<path class="st19" d="M890-33.3c-2.2,0-3.9,1.6-3.9,3.6c0,2,1.8,3.6,3.9,3.6c2.2,0,3.9-1.6,3.9-3.6
			C893.9-31.7,892.2-33.3,890-33.3L890-33.3z"/>
	</g>
	<polygon class="st19" points="908,60.5 909.2,61.5 910.2,60.5 909.2,59.5 	"/>
	<polygon class="st19" points="1000.9,-96.2 1001.6,-95.5 1002.3,-96.2 1001.6,-96.8 	"/>
	<g>
		<path class="st19" d="M1126.7-228.7c-2.1,0-3.7,1.5-3.7,3.4s1.7,3.4,3.7,3.4c2.1,0,3.7-1.6,3.7-3.4S1128.8-228.7,1126.7-228.7
			L1126.7-228.7z"/>
		<path class="st17" d="M1170.7-413.1c-2.7,0-4.9,2-4.9,4.4s2.2,4.4,4.9,4.4c2.7,0,4.9-2,4.9-4.4S1173.4-413.1,1170.7-413.1
			L1170.7-413.1z"/>
		<path class="st17" d="M1216.9-499.4c-2.6,0-4.8,2-4.8,4.4s2.2,4.4,4.8,4.4c2.7,0,4.8-1.9,4.8-4.4S1219.6-499.4,1216.9-499.4
			L1216.9-499.4z"/>
		<path class="st17" d="M1356.3-561.2c-2.4,0-4.4,1.8-4.4,4.1c0,2.2,2,4,4.4,4c2.4,0,4.5-1.8,4.5-4
			C1360.7-559.4,1358.7-561.2,1356.3-561.2L1356.3-561.2z"/>
		<path class="st17" d="M1037.4-625.2c-2.7,0-4.9,2-4.9,4.5c0,2.5,2.2,4.5,4.9,4.5c2.8,0,4.9-2,4.9-4.5
			C1042.4-623.2,1040.2-625.2,1037.4-625.2L1037.4-625.2z"/>
		<path class="st17" d="M1096.9-583.1c-2,0-3.6,1.5-3.6,3.2c0,1.8,1.6,3.3,3.6,3.3c2,0,3.6-1.5,3.6-3.3
			C1100.5-581.7,1098.8-583.1,1096.9-583.1L1096.9-583.1z"/>
	</g>
	<polygon class="st17" points="1117.2,-455.8 1118.9,-454.3 1120.5,-455.8 1118.9,-457.3 	"/>
	<g>
		<path class="st17" d="M1110.2-352.8c-3.4,0-6.2,2.5-6.2,5.6s2.8,5.6,6.2,5.6c3.4,0,6.2-2.5,6.2-5.6S1113.7-352.8,1110.2-352.8
			L1110.2-352.8z"/>
		<path class="st19" d="M1197.7,10.2c-1.8,0-3.2,1.3-3.2,2.9c0,1.6,1.4,2.9,3.2,2.9c1.8,0,3.2-1.3,3.2-2.9
			C1200.9,11.5,1199.5,10.2,1197.7,10.2L1197.7,10.2z"/>
	</g>
	<polygon class="st17" points="1314.8,-298.4 1315.7,-297.6 1316.7,-298.4 1315.7,-299.3 	"/>
	<g>
		<path class="st19" d="M1170-237c-2.1,0-3.8,1.6-3.8,3.4c0,1.9,1.7,3.4,3.8,3.4c2.1,0,3.8-1.5,3.8-3.4
			C1173.8-235.4,1172.1-237,1170-237L1170-237z"/>
	</g>
	<polygon class="st17" points="1122.1,-287 1123.5,-285.6 1125,-287 1123.5,-288.3 	"/>
	<g>
		<path class="st17" d="M1153-328.5c-3.5,0-6.4,2.6-6.4,5.9s2.9,5.8,6.4,5.8c3.6,0,6.4-2.6,6.4-5.8S1156.5-328.5,1153-328.5
			L1153-328.5z"/>
	</g>
	<polygon class="st17" points="1184.9,-486.3 1186.5,-484.8 1188,-486.3 1186.5,-487.7 	"/>
	<polygon class="st17" points="982.3,-451.4 983.3,-450.5 984.4,-451.4 983.3,-452.4 	"/>
	<g>
		<path class="st17" d="M1004.6-319.1c-1.6,0-3,1.2-3,2.7c0,1.5,1.4,2.6,3,2.6c1.6,0,3-1.2,3-2.6
			C1007.6-317.9,1006.2-319.1,1004.6-319.1L1004.6-319.1z"/>
	</g>
	<polygon class="st19" points="1082.3,-192.8 1082.9,-192.3 1083.4,-192.8 1082.9,-193.3 	"/>
	<g>
		<path class="st19" d="M1198-40.4c-3.2,0-5.8,2.4-5.8,5.3c0,2.9,2.6,5.2,5.8,5.2c3.2,0,5.8-2.3,5.8-5.2
			C1203.9-38,1201.3-40.4,1198-40.4L1198-40.4z"/>
		<path class="st19" d="M1363.6,28.1c-1.6,0-2.9,1.2-2.9,2.6s1.3,2.6,2.9,2.6c1.6,0,3-1.2,3-2.6S1365.2,28.1,1363.6,28.1
			L1363.6,28.1z"/>
	</g>
	<polygon class="st17" points="1349.9,-361.3 1350.4,-360.8 1350.9,-361.3 1350.4,-361.8 	"/>
	<g>
		<path class="st17" d="M1354-407.8c-1.7,0-3.1,1.2-3.1,2.8c0,1.6,1.4,2.8,3.1,2.8c1.7,0,3.1-1.2,3.1-2.8
			C1357.1-406.5,1355.8-407.8,1354-407.8L1354-407.8z"/>
	</g>
	<polygon class="st18" points="75,-573.3 76.2,-572.1 77.5,-573.3 76.2,-574.5 	"/>
	<polygon class="st18" points="161.7,-579.6 162.4,-579 163.1,-579.6 162.4,-580.3 	"/>
	<g>
		<path class="st18" d="M286.2-614.3c-3.4,0-6.2,2.5-6.2,5.6c0,3.1,2.8,5.6,6.2,5.6c3.4,0,6.2-2.5,6.2-5.6
			C292.4-611.8,289.6-614.3,286.2-614.3L286.2-614.3z"/>
		<path class="st18" d="M483.2-595.1c-2.6,0-4.8,1.9-4.8,4.4c0,1.9,1.4,3.5,3.3,4.1c0.1,0,0.1-0.1,0.1-0.1c2-1.5,4.1-2.9,6.1-4.2
			C487.9-593.2,485.8-595.1,483.2-595.1L483.2-595.1z"/>
		<path class="st17" d="M488-590.9c-2,1.4-4.1,2.8-6.1,4.2c-0.1,0-0.1,0.1-0.1,0.1c0.5,0.2,0.9,0.2,1.5,0.2c2.6,0,4.8-1.9,4.8-4.3
			C488-590.8,488-590.9,488-590.9L488-590.9z"/>
		<path class="st17" d="M713.1-669.1h-5.9c0.2,1.4,1.4,2.4,3,2.4C711.7-666.7,713-667.7,713.1-669.1L713.1-669.1z"/>
		<path class="st17" d="M1252.5-607.1c-3.4,0-6.1,2.5-6.1,5.5c0,3.1,2.7,5.6,6.1,5.6c3.4,0,6.1-2.5,6.1-5.6
			C1258.5-604.6,1255.8-607.1,1252.5-607.1L1252.5-607.1z"/>
		<path class="st18" d="M-15.1-232.4c0,0.4-0.1,0.9-0.3,1.3c-0.6,1.6-2.2,2.7-4.2,2.7c-2.1,0-3.9-1.4-4.4-3.3
			c-0.1-0.3-0.1-0.5-0.1-0.8s0-0.6,0.1-0.9c0.4-1.9,2.3-3.3,4.4-3.3c2,0,3.6,1.1,4.2,2.7C-15.2-233.3-15.1-232.9-15.1-232.4z"/>
		<path class="st17" d="M507.9,80.7c-1.7,0-3.1,1.2-3.1,2.8s1.4,2.8,3.1,2.8c1.7,0,3.1-1.2,3.1-2.8S509.5,80.7,507.9,80.7
			L507.9,80.7z"/>
		<path class="st17" d="M361.1-54.5c-2.2,0-3.9,1.6-3.9,3.6c0,2,1.8,3.6,3.9,3.6c2.2,0,3.9-1.6,3.9-3.6
			C365.1-52.9,363.3-54.5,361.1-54.5L361.1-54.5z"/>
	</g>
	<polygon class="st17" points="344.4,-142.3 345.2,-141.4 346.2,-142.3 345.2,-143.1 	"/>
	<polygon class="st17" points="431.1,-241.5 431.5,-241.1 431.9,-241.5 431.5,-241.9 	"/>
	<polygon class="st17" points="338.8,-376.2 339.7,-375.4 340.6,-376.2 339.7,-377 	"/>
	<g>
		<path class="st17" d="M431.1-483.5c-3.2,0-5.8,2.3-5.8,5.2c0,3,2.6,5.3,5.8,5.3c3.2,0,5.8-2.3,5.8-5.3
			C436.9-481.2,434.3-483.5,431.1-483.5L431.1-483.5z"/>
		<path class="st18" d="M412.4-581.5c-2.5,0-4.5,1.8-4.5,4.1c0,2.3,2,4.1,4.5,4.1c2.5,0,4.5-1.8,4.5-4.1
			C416.8-579.6,414.9-581.5,412.4-581.5L412.4-581.5z"/>
	</g>
	<polygon class="st18" points="384.3,-665.7 385.2,-665 386,-665.7 385.2,-666.5 	"/>
	<g>
		<path class="st17" d="M616.9-398.4c-3.4,0-6.1,2.5-6.1,5.6c0,3.1,2.8,5.6,6.1,5.6c3.4,0,6.1-2.4,6.1-5.6
			C623.1-395.9,620.3-398.4,616.9-398.4L616.9-398.4z"/>
		<path class="st17" d="M532.3-292.8c-3,0-5.3,2.2-5.3,4.9c0,2.6,2.4,4.8,5.3,4.8c3,0,5.3-2.2,5.3-4.8
			C537.7-290.6,535.3-292.8,532.3-292.8L532.3-292.8z"/>
		<path class="st17" d="M588.3-212.8c-1.9,0-3.4,1.4-3.4,3.1c0,1.7,1.6,3.1,3.4,3.1c1.9,0,3.4-1.4,3.4-3.1
			C591.7-211.3,590.2-212.8,588.3-212.8L588.3-212.8z"/>
	</g>
	<polygon class="st17" points="538.2,2.1 539,2.9 539.8,2.1 539,1.5 	"/>
	<g>
		<path class="st17" d="M473,144.9c-2.2,0-4.1,1.7-4.1,3.7c0,2,1.8,3.7,4.1,3.7c2.2,0,4.1-1.7,4.1-3.7
			C477,146.6,475.2,144.9,473,144.9L473,144.9z"/>
		<path class="st17" d="M141.2,157c-1.8,0-3.3,1.4-3.3,3c0,1.7,1.5,3,3.3,3c1.8,0,3.3-1.4,3.3-3C144.6,158.4,143.1,157,141.2,157
			L141.2,157z"/>
	</g>
	<polygon class="st17" points="258.2,87.3 258.7,87.7 259.1,87.3 258.7,86.9 	"/>
	<polygon class="st17" points="366,-27.6 367.2,-26.5 368.5,-27.6 367.2,-28.8 	"/>
	<g>
		<path class="st17" d="M494.9-175.1c-1.2,0-2.1,0.9-2.1,1.9c0,1.1,0.9,2,2.1,2c1.2,0,2.1-0.9,2.1-2
			C497.1-174.2,496.1-175.1,494.9-175.1L494.9-175.1z"/>
		<path class="st17" d="M586-249.7c-2,0-3.5,1.5-3.5,3.2c0,1.8,1.6,3.2,3.5,3.2c2,0,3.5-1.4,3.5-3.2
			C589.5-248.2,588-249.7,586-249.7L586-249.7z"/>
		<path class="st17" d="M712.9-245.4c-3.1,0-5.6,2.3-5.6,5.1c0,2.8,2.5,5,5.6,5c3.1,0,5.6-2.3,5.6-5
			C718.5-243.1,716-245.4,712.9-245.4L712.9-245.4z"/>
		<path class="st17" d="M855.8-343c-1.5,0-2.6,1.1-2.6,2.4c0,1.3,1.1,2.4,2.6,2.4c1.5,0,2.6-1.1,2.6-2.4
			C858.4-342,857.2-343,855.8-343L855.8-343z"/>
	</g>
	<polygon class="st19" points="1368.4,-48.1 1368.4,-45.1 1368.4,-45 1366.6,-46.5 1368.4,-48.2 	"/>
	<g>
		<path class="st19" d="M1224.5-44c-3.3,0-6,2.4-6,5.5c0,3,2.6,5.4,6,5.4c3.3,0,6-2.4,6-5.4C1230.5-41.6,1227.8-44,1224.5-44
			L1224.5-44z"/>
	</g>
	<polygon class="st19" points="1038.1,-4.2 1038.8,-3.6 1039.4,-4.2 1038.8,-4.8 	"/>
	<polygon class="st17" points="820.5,-113.8 822.2,-112.3 823.7,-113.8 822.2,-115.2 	"/>
	<g>
		<path class="st17" d="M741.4-34.2c-3.2,0-5.8,2.3-5.8,5.2s2.6,5.3,5.8,5.3c3.2,0,5.8-2.4,5.8-5.3S744.6-34.2,741.4-34.2
			L741.4-34.2z"/>
	</g>
	<polygon class="st17" points="590.5,40.6 591.2,41.2 591.8,40.6 591.2,40 	"/>
	<g>
		<path class="st17" d="M477.4,59.9c-2.2,0-3.9,1.6-3.9,3.6c0,1.9,1.8,3.5,3.9,3.5c2.2,0,3.9-1.6,3.9-3.5
			C481.3,61.5,479.6,59.9,477.4,59.9L477.4,59.9z"/>
		<path class="st17" d="M312.6,89.6c-2.6,0-4.8,1.9-4.8,4.3c0,2.4,2.1,4.4,4.8,4.4c2.6,0,4.8-1.9,4.8-4.4
			C317.3,91.5,315.2,89.6,312.6,89.6L312.6,89.6z"/>
	</g>
	<polygon class="st17" points="197,70.9 198.7,72.5 200.5,70.9 198.7,69.3 	"/>
	<g>
		<path class="st17" d="M84.8,121c-1.1,0-2,0.8-2,1.8c0,1,0.9,1.8,2,1.8c1.1,0,2-0.8,2-1.8C86.8,121.9,85.9,121,84.8,121L84.8,121z"
			/>
		<path class="st18" d="M-1.6-313.6c-3.2,0-5.7,2.3-5.7,5.2s2.5,5.2,5.7,5.2c3.2,0,5.7-2.3,5.7-5.2S1.6-313.6-1.6-313.6L-1.6-313.6z
			"/>
		<path class="st18" d="M62.4-123.2c-3.1,0-5.6,2.3-5.6,5c0,2.8,2.5,5,5.6,5c3.1,0,5.6-2.2,5.6-5C68-120.9,65.5-123.2,62.4-123.2
			L62.4-123.2z"/>
		<path class="st17" d="M194.1-89.3c-1.3,0-2.3,0.9-2.3,2.1c0,1.2,1,2.1,2.3,2.1c1.3,0,2.3-0.9,2.3-2.1
			C196.4-88.3,195.4-89.3,194.1-89.3L194.1-89.3z"/>
		<path class="st17" d="M279,20.4c-1.7,0-3.1,1.2-3.1,2.8c0,1.6,1.4,2.8,3.1,2.8c1.7,0,3.1-1.2,3.1-2.8
			C282,21.6,280.6,20.4,279,20.4L279,20.4z"/>
	</g>
	<polygon class="st17" points="420.6,62.4 421.6,63.4 422.6,62.4 421.6,61.6 	"/>
	<g>
		<path class="st19" d="M1145-133.2c-1.4,0-2.4,1-2.4,2.2c0,1.2,1,2.2,2.4,2.2c1.4,0,2.4-1,2.4-2.2
			C1147.4-132.2,1146.4-133.2,1145-133.2L1145-133.2z"/>
		<path class="st19" d="M926.9-164.5c-2.6,0-4.7,1.9-4.7,4.3c0,2.3,2.1,4.3,4.7,4.3c2.6,0,4.7-1.9,4.7-4.3
			C931.6-162.6,929.5-164.5,926.9-164.5L926.9-164.5z"/>
		<path class="st17" d="M779.9-133.2c-2,0-3.6,1.5-3.6,3.3c0,1.8,1.6,3.3,3.6,3.3c2,0,3.6-1.5,3.6-3.3
			C783.5-131.7,781.9-133.2,779.9-133.2L779.9-133.2z"/>
		<path class="st17" d="M613-173.3c-1.5,0-2.8,1.1-2.8,2.5c0,1.4,1.2,2.5,2.8,2.5c1.5,0,2.8-1.1,2.8-2.5
			C615.7-172.2,614.5-173.3,613-173.3L613-173.3z"/>
	</g>
	<polygon class="st17" points="437.5,-213.9 439,-212.6 440.5,-213.9 439,-215.3 	"/>
	<g>
		<path class="st17" d="M262.8-243.7c-1.7,0-3.1,1.2-3.1,2.8c0,1.6,1.4,2.8,3.1,2.8c1.7,0,3.1-1.2,3.1-2.8
			C265.8-242.4,264.4-243.7,262.8-243.7L262.8-243.7z"/>
		<path class="st18" d="M116.9-280.7c-1.9,0-3.5,1.4-3.5,3.1c0,1.8,1.6,3.2,3.5,3.2c1.9,0,3.5-1.4,3.5-3.2
			C120.4-279.3,118.8-280.7,116.9-280.7L116.9-280.7z"/>
		<path class="st18" d="M24.8-364.5c-2.8,0-5,2-5,4.5s2.2,4.5,5,4.5c2.8,0,5-2,5-4.5S27.5-364.5,24.8-364.5L24.8-364.5z"/>
	</g>
	<g>
		<path class="st17" d="M878.5-464.1c-2.2,0-3.9,1.6-3.9,3.6c0,2,1.8,3.5,3.9,3.5c2.2,0,3.9-1.6,3.9-3.5
			C882.4-462.5,880.6-464.1,878.5-464.1L878.5-464.1z"/>
		<path class="st17" d="M692.5-447.4c-3.5,0-6.3,2.5-6.3,5.7c0,3.2,2.8,5.7,6.3,5.7c3.5,0,6.3-2.5,6.3-5.7
			C698.7-444.8,695.9-447.4,692.5-447.4L692.5-447.4z"/>
		<path class="st17" d="M679.6-329.4c-3.5,0-6.4,2.6-6.4,5.8s2.9,5.8,6.4,5.8c3.5,0,6.4-2.6,6.4-5.8S683.1-329.4,679.6-329.4
			L679.6-329.4z"/>
	</g>
	<polygon class="st17" points="572.5,-175.8 573.5,-174.8 574.6,-175.8 573.5,-176.7 	"/>
	<g>
		<path class="st17" d="M488-90.8c-1.2,0-2.2,0.9-2.2,2l0.9,1.6c-1.6,0.9-2.7,2.6-2.7,4.5c0,3,2.7,5.4,6,5.4c3.3,0,6-2.4,6-5.4
			c0-3-2.6-5.4-5.9-5.5l0.2-0.7C490.3-90,489.3-90.8,488-90.8L488-90.8z"/>
		<path class="st17" d="M307,34.1c-2,0-3.7,1.5-3.7,3.4c0,1.8,1.7,3.3,3.7,3.3c2,0,3.7-1.5,3.7-3.3C310.7,35.6,309,34.1,307,34.1
			L307,34.1z"/>
	</g>
	<polygon class="st19" points="1014.8,65.7 1016.1,66.9 1017.5,65.7 1016.1,64.5 	"/>
	<g>
		<path class="st19" d="M1163.1-25.7c-2.9,0-5.3,2.1-5.3,4.8c0,2.6,2.4,4.8,5.3,4.8c2.9,0,5.3-2.2,5.3-4.8
			C1168.4-23.5,1166-25.7,1163.1-25.7L1163.1-25.7z"/>
	</g>
	<polygon class="st19" points="1150.1,-109.5 1151.8,-107.9 1153.6,-109.5 1151.8,-111.1 	"/>
	<polygon class="st19" points="1202.4,-240.9 1203.4,-240.1 1204.3,-240.9 1203.4,-241.7 	"/>
	<polygon class="st17" points="1243,-329.4 1244.2,-328.3 1245.4,-329.4 1244.2,-330.5 	"/>
	<g>
		<path class="st17" d="M1359.2-335c-1.8,0-3.3,1.4-3.3,3c0,1.7,1.5,3,3.3,3c1.8,0,3.3-1.3,3.3-3C1362.5-333.7,1361-335,1359.2-335
			L1359.2-335z"/>
		<path class="st19" d="M1187-232.7c-2.6,0-4.8,2-4.8,4.4c0,2.4,2.2,4.4,4.8,4.4c2.6,0,4.8-1.9,4.8-4.4
			C1191.9-230.7,1189.7-232.7,1187-232.7L1187-232.7z"/>
		<path class="st19" d="M1146.1-116.8c-2.4,0-4.3,1.8-4.3,3.9c0,2.2,1.9,3.9,4.3,3.9c2.4,0,4.3-1.7,4.3-3.9
			C1150.4-115,1148.5-116.8,1146.1-116.8L1146.1-116.8z"/>
		<path class="st19" d="M992.2-15.9c-3.7,0-6.6,2.7-6.6,6s3,6,6.6,6c3.7,0,6.6-2.7,6.6-6S995.9-15.9,992.2-15.9L992.2-15.9z"/>
		<path class="st19" d="M904.6,117.6c-1.4,0-2.5,1-2.5,2.2c0,1.2,1.1,2.2,2.5,2.2c1.4,0,2.4-1,2.4-2.2
			C907,118.6,905.9,117.6,904.6,117.6L904.6,117.6z"/>
		<path class="st18" d="M479-669.1h-9.5c-1.1,1-1.7,2.4-1.7,3.9c0,3.2,2.9,5.7,6.4,5.7c3.6,0,6.4-2.5,6.4-5.7
			C480.6-666.7,480.1-668,479-669.1L479-669.1z"/>
		<path class="st17" d="M623.6-616c-2.6,0-4.7,1.9-4.7,4.3c0,2.4,2.1,4.3,4.7,4.3c2.6,0,4.7-1.9,4.7-4.3
			C628.3-614.1,626.2-616,623.6-616L623.6-616z"/>
	</g>
	<polygon class="st17" points="948.2,-485.5 948.9,-484.8 949.6,-485.5 948.9,-486.2 	"/>
	<g>
		<path class="st17" d="M1130.9-520.6c-3.7,0-6.8,2.8-6.8,6.2c0,3.4,3.1,6.1,6.8,6.1c3.7,0,6.8-2.8,6.8-6.1
			C1137.7-517.8,1134.6-520.6,1130.9-520.6L1130.9-520.6z"/>
		<path class="st17" d="M1240.5-497.7c-2.8,0-5.1,2.1-5.1,4.6s2.3,4.6,5.1,4.6c2.8,0,5.1-2,5.1-4.6S1243.3-497.7,1240.5-497.7
			L1240.5-497.7z"/>
	</g>
	<polygon class="st17" points="1089.9,-562.2 1091.7,-560.5 1093.6,-562.2 1091.7,-563.9 	"/>
	<g>
		<path class="st17" d="M901.2-529.5c-2.8,0-5.1,2.1-5.1,4.6c0,2.6,2.3,4.7,5.1,4.7c2.8,0,5.1-2.1,5.1-4.7
			C906.3-527.4,904-529.5,901.2-529.5L901.2-529.5z"/>
		<path class="st17" d="M766.8-384.9c-3.2,0-5.7,2.3-5.7,5.2s2.5,5.2,5.7,5.2c3.2,0,5.7-2.3,5.7-5.2S770-384.9,766.8-384.9
			L766.8-384.9z"/>
		<path class="st17" d="M711.2-283.7c-2.5,0-4.6,1.9-4.6,4.2c0,2.3,2,4.2,4.6,4.2c2.5,0,4.6-1.9,4.6-4.2
			C715.7-281.8,713.7-283.7,711.2-283.7L711.2-283.7z"/>
		<path class="st17" d="M621.9-276c-2.7,0-4.8,2-4.8,4.4c0,2.4,2.1,4.4,4.8,4.4c2.6,0,4.8-2,4.8-4.4
			C626.7-274.1,624.5-276,621.9-276L621.9-276z"/>
		<path class="st17" d="M579.8-117.8c-2.1,0-3.8,1.6-3.8,3.5c0,1.9,1.7,3.5,3.8,3.5c2.1,0,3.8-1.6,3.8-3.5
			C583.6-116.3,581.9-117.8,579.8-117.8L579.8-117.8z"/>
	</g>
	<polygon class="st17" points="507.1,-57 508.7,-55.5 510.2,-57 508.7,-58.4 	"/>
	<g>
		<path class="st17" d="M366.1,42.9c-1.8,0-3.2,1.3-3.2,2.9c0,1.6,1.5,2.9,3.2,2.9c1.8,0,3.2-1.3,3.2-2.9
			C369.3,44.2,367.8,42.9,366.1,42.9L366.1,42.9z"/>
		<path class="st17" d="M564.9,100.9c-3.7,0-6.8,2.8-6.8,6.1c0,3.4,3,6.1,6.8,6.1c3.7,0,6.8-2.8,6.8-6.1
			C571.6,103.6,568.6,100.9,564.9,100.9L564.9,100.9z"/>
	</g>
	<polygon class="st17" points="637,70.3 638,71.2 639.1,70.3 638,69.3 	"/>
	<g>
		<path class="st19" d="M800.8,24c-1.1,0-2.1,0.8-2.1,1.9c0,1,1,1.9,2.1,1.9c1.1,0,2.1-0.9,2.1-1.9C802.9,24.8,801.9,24,800.8,24
			L800.8,24z"/>
		<path class="st19" d="M871.4-88.2c-1.1,0-2,0.8-2,1.8c0,1,0.9,1.9,2,1.9c1.1,0,2-0.8,2-1.9C873.4-87.4,872.6-88.2,871.4-88.2
			L871.4-88.2z"/>
		<path class="st19" d="M995.1-107.6c-3.3,0-5.9,2.4-5.9,5.3c0,3,2.6,5.4,5.9,5.4c3.3,0,5.9-2.4,5.9-5.4
			C1001-105.2,998.4-107.6,995.1-107.6L995.1-107.6z"/>
		<path class="st19" d="M1078.4-163.3c-2.6,0-4.7,1.9-4.7,4.3l0.6,2.1c-1.2,0.6-2.1,1.8-2.1,3.2c0,2.1,1.9,3.8,4.2,3.8
			c2.3,0,4.2-1.7,4.2-3.8l-0.3-1.4c1.7-0.7,2.9-2.2,2.9-3.9C1083.2-161.4,1081-163.3,1078.4-163.3L1078.4-163.3z"/>
		<path class="st19" d="M1116.6-230.1c-1.5,0-2.6,1.1-2.6,2.4c0,1.3,1.1,2.4,2.6,2.4c1.5,0,2.6-1.1,2.6-2.4
			C1119.2-229,1118-230.1,1116.6-230.1L1116.6-230.1z"/>
		<path class="st19" d="M1237.2-195.1c-2.2,0-3.9,1.6-3.9,3.5c0,2,1.7,3.6,3.9,3.6c2.2,0,3.9-1.6,3.9-3.6
			C1241.1-193.5,1239.4-195.1,1237.2-195.1L1237.2-195.1z"/>
	</g>
	<polygon class="st17" points="1325.7,-311 1326.8,-310 1327.9,-311 1326.8,-312.1 	"/>
	<g>
		<path class="st18" d="M-24,111.2c0.9,1.8,3,3.1,5.4,3.1c1.1,0,2.2-0.3,3.2-0.9c1.6-0.9,2.7-2.6,2.7-4.5c0-1.9-1.1-3.6-2.7-4.5
			c-0.9-0.5-2.1-0.9-3.2-0.9c-2.4,0-4.5,1.3-5.4,3.2V111.2z"/>
		<path class="st17" d="M42.2-16.8c-1.2,0-2.2,0.9-2.2,2c0,1.1,1,2.1,2.2,2.1c1.2,0,2.2-0.9,2.2-2.1C44.5-15.9,43.5-16.8,42.2-16.8
			L42.2-16.8z"/>
		<path class="st18" d="M15.7-119.9c-2.7,0-4.9,2-4.9,4.4c0,2.5,2.2,4.5,4.9,4.5c2.7,0,4.9-2,4.9-4.5
			C20.6-117.9,18.4-119.9,15.7-119.9L15.7-119.9z"/>
		<path class="st18" d="M16.3-313.2c-2.5,0-4.6,1.9-4.6,4.2c0,2.3,2.1,4.2,4.6,4.2c2.5,0,4.6-1.9,4.6-4.2
			C20.9-311.4,18.8-313.2,16.3-313.2L16.3-313.2z"/>
	</g>
	<polygon class="st18" points="149.2,-631.1 150,-630.5 150.6,-631.1 150,-631.8 	"/>
	<g>
		<path class="st18" d="M21.9-569.5c-2.7,0-4.8,2-4.8,4.4s2.1,4.4,4.8,4.4c2.6,0,4.8-2,4.8-4.4S24.6-569.5,21.9-569.5L21.9-569.5z"
			/>
		<path class="st17" d="M643-431.4c-2.3,0-4.2,1.7-4.2,3.8s1.9,3.8,4.2,3.8c2.3,0,4.2-1.7,4.2-3.8S645.3-431.4,643-431.4L643-431.4z
			"/>
		<path class="st17" d="M517.3-511.7c-2.4,0-4.4,1.8-4.4,4.1c0,2.2,2,4,4.4,4c2.4,0,4.4-1.8,4.4-4
			C521.7-509.8,519.8-511.7,517.3-511.7L517.3-511.7z"/>
		<path class="st18" d="M329.8-543.4c-3,0-5.3,2.2-5.3,4.9c0,2.7,2.4,4.9,5.3,4.9c3,0,5.4-2.2,5.4-4.9
			C335.2-541.2,332.8-543.4,329.8-543.4L329.8-543.4z"/>
		<path class="st17" d="M306.2-244.9c-2.3,0-4.3,1.7-4.3,3.8c0,2.1,1.9,3.8,4.3,3.8c2.3,0,4.3-1.7,4.3-3.8
			C310.4-243.2,308.5-244.9,306.2-244.9L306.2-244.9z"/>
	</g>
	<polygon class="st18" points="146.4,-373.1 147.5,-372.1 148.6,-373.1 147.5,-374 	"/>
	<g>
		<path class="st17" d="M270.4-318.3c-3.6,0-6.5,2.6-6.5,5.9c0,3.3,2.9,6,6.5,6c3.6,0,6.5-2.6,6.5-6
			C276.9-315.7,274-318.3,270.4-318.3L270.4-318.3z"/>
		<path class="st17" d="M462-472.1c-2.9,0-5.2,2.1-5.2,4.7c0,2.6,2.3,4.7,5.2,4.7c2.9,0,5.2-2.1,5.2-4.7
			C467.2-470,464.9-472.1,462-472.1L462-472.1z"/>
		<path class="st18" d="M262.1-590.6c-3.4,0-6.2,2.5-6.2,5.6c0,3.1,2.8,5.7,6.2,5.7c3.4,0,6.2-2.5,6.2-5.7
			C268.3-588.1,265.5-590.6,262.1-590.6L262.1-590.6z"/>
		<path class="st18" d="M166.9-478.9c-3.6,0-6.5,2.6-6.5,6c0,3.3,2.9,5.9,6.5,5.9c3.6,0,6.5-2.6,6.5-5.9
			C173.5-476.3,170.6-478.9,166.9-478.9L166.9-478.9z"/>
	</g>
	<polygon class="st18" points="233.9,-393.3 235.8,-391.6 237.6,-393.3 235.8,-395 	"/>
	<g>
		<path class="st18" d="M393.4-520.7c-2.7,0-4.9,2-4.9,4.4c0,0.2,0,0.3,0,0.4h0.1c1.8-1.6,3.6-3.2,5.6-4.7
			C393.9-520.7,393.6-520.7,393.4-520.7L393.4-520.7z"/>
		<path class="st17" d="M394.2-520.6L394.2-520.6c-2,1.5-3.8,3.1-5.6,4.7c0,0.1-0.1,0.1-0.1,0.1c0.2,2.3,2.3,4.1,4.9,4.1
			c2.7,0,4.9-2,4.9-4.5C398.3-518.4,396.5-520.2,394.2-520.6L394.2-520.6z"/>
		<path class="st18" d="M234.6-458.4c-1.2,0-2.2,0.9-2.2,2c0,1.1,1,2,2.2,2c1.2,0,2.2-0.9,2.2-2
			C236.9-457.5,235.8-458.4,234.6-458.4L234.6-458.4z"/>
	</g>
	<polygon class="st18" points="17.4,-406.7 18.8,-405.5 20.2,-406.7 18.8,-408 	"/>
	<g>
		<path class="st19" d="M1320.5-78.6c-1.7,0-3.1,1.2-3.1,2.8c0,1.6,1.4,2.8,3.1,2.8c1.7,0,3.1-1.2,3.1-2.8
			C1323.6-77.3,1322.2-78.6,1320.5-78.6L1320.5-78.6z"/>
		<path class="st19" d="M1172-145.1c-2.3,0-4.2,1.7-4.2,3.7c0,2.1,1.9,3.8,4.2,3.8c2.3,0,4.2-1.7,4.2-3.8
			C1176.2-143.4,1174.3-145.1,1172-145.1L1172-145.1z"/>
	</g>
	<polygon class="st17" points="952.2,-236.6 954,-234.9 955.8,-236.6 954,-238.2 	"/>
	<g>
		<path class="st17" d="M877.7-327.7c-3.7,0-6.7,2.7-6.7,6.1c0,3.3,3,6.1,6.7,6.1c3.7,0,6.7-2.8,6.7-6.1
			C884.4-325,881.4-327.7,877.7-327.7L877.7-327.7z"/>
		<path class="st17" d="M795-294.7c-1.7,0-3,1.2-3,2.7c0,1.5,1.4,2.8,3,2.8c1.7,0,3-1.2,3-2.8C798-293.5,796.7-294.7,795-294.7
			L795-294.7z"/>
	</g>
	<polygon class="st17" points="720.1,-304.4 721.5,-303.1 722.8,-304.4 721.5,-305.6 	"/>
	<g>
		<path class="st17" d="M795.1-174c-2.3,0-4.2,1.7-4.2,3.8c0,2.1,1.9,3.8,4.2,3.8c2.3,0,4.2-1.7,4.2-3.8
			C799.3-172.3,797.4-174,795.1-174L795.1-174z"/>
		<path class="st17" d="M635.4-474.6c-1.6,0-3,1.2-3,2.7c0,1.5,1.4,2.6,3,2.6c1.6,0,3-1.2,3-2.6C638.4-473.4,637-474.6,635.4-474.6
			L635.4-474.6z"/>
		<path class="st17" d="M515-328c-2.3,0-4.2,1.7-4.2,3.8c0,2.1,1.9,3.8,4.2,3.8c2.3,0,4.2-1.7,4.2-3.8
			C519.2-326.3,517.4-328,515-328L515-328z"/>
		<path class="st19" d="M1350.4,140.1c-2.1,0-3.7,1.6-3.7,3.4s1.7,3.4,3.7,3.4c2.1,0,3.7-1.5,3.7-3.4S1352.4,140.1,1350.4,140.1
			L1350.4,140.1z"/>
		<path class="st19" d="M1306.5-154.9c-3.2,0-5.8,2.3-5.8,5.2c0,2.9,2.6,5.2,5.8,5.2c3.2,0,5.8-2.3,5.8-5.2
			C1312.3-152.6,1309.7-154.9,1306.5-154.9L1306.5-154.9z"/>
		<path class="st19" d="M927.1,152.9c-1.5,0-2.8,1.1-2.8,2.5c0,1.4,1.2,2.5,2.8,2.5c1.5,0,2.8-1.1,2.8-2.5
			C929.9,154,928.6,152.9,927.1,152.9L927.1,152.9z"/>
		<path class="st17" d="M1339.3-597.6c-2.2,0-3.9,1.6-3.9,3.6c0,2,1.7,3.5,3.9,3.5c2.2,0,3.9-1.6,3.9-3.5
			C1343.3-596,1341.5-597.6,1339.3-597.6L1339.3-597.6z"/>
	</g>
	<polygon class="st17" points="1192,-537.5 1193.6,-536.1 1195.1,-537.5 1193.6,-538.9 	"/>
	<g>
		<path class="st17" d="M1091.4-478.5c-3.2,0-5.9,2.4-5.9,5.3c0,2.9,2.6,5.3,5.9,5.3c3.3,0,5.9-2.4,5.9-5.3
			C1097.3-476.1,1094.7-478.5,1091.4-478.5L1091.4-478.5z"/>
		<path class="st17" d="M976.3-351c-3.5,0-6.4,2.6-6.4,5.8s2.9,5.8,6.4,5.8c3.5,0,6.4-2.6,6.4-5.8S979.9-351,976.3-351L976.3-351z"
			/>
		<path class="st17" d="M783.1-301.7c-1.2,0-2.1,0.8-2.1,1.9c0,1,0.9,1.9,2.1,1.9c1.1,0,2.1-0.9,2.1-1.9
			C785.2-300.8,784.2-301.7,783.1-301.7L783.1-301.7z"/>
		<path class="st17" d="M650.4-211.4c-2.3,0-4.2,1.7-4.2,3.8c0,2.1,1.9,3.8,4.2,3.8c2.3,0,4.2-1.7,4.2-3.8
			C654.6-209.7,652.7-211.4,650.4-211.4L650.4-211.4z"/>
		<path class="st17" d="M527-73.3c-1.6,0-3,1.2-3,2.7c0,1.5,1.4,2.7,3,2.7c1.7,0,3-1.2,3-2.7C530-72.1,528.7-73.3,527-73.3L527-73.3
			z"/>
	</g>
	<polygon class="st17" points="462.2,43.2 463.5,44.4 464.8,43.2 463.5,42.1 	"/>
	<g>
		<path class="st17" d="M368.8,157.6c-3.2,0-5.8,2.3-5.8,5.2c0,2.9,2.6,5.2,5.8,5.2c3.2,0,5.8-2.3,5.8-5.2
			C374.6,159.9,372,157.6,368.8,157.6L368.8,157.6z"/>
	</g>
	<polygon class="st17" points="1275.5,-533.2 1276.3,-532.6 1276.9,-533.2 1276.3,-533.9 	"/>
	<g>
		<path class="st17" d="M1142.4-642.1c-2,0-3.7,1.5-3.7,3.3c0,1.9,1.7,3.4,3.7,3.4c2,0,3.7-1.5,3.7-3.4
			C1146.1-640.6,1144.4-642.1,1142.4-642.1L1142.4-642.1z"/>
		<path class="st17" d="M986.4-600.6c-3.4,0-6.2,2.5-6.2,5.6c0,3.1,2.8,5.7,6.2,5.7c3.4,0,6.2-2.5,6.2-5.7
			C992.5-598.1,989.8-600.6,986.4-600.6L986.4-600.6z"/>
		<path class="st17" d="M734.6-563.8c-2.9,0-5.1,2.1-5.1,4.7c0,2.6,2.3,4.7,5.1,4.7c2.9,0,5.1-2.1,5.1-4.7
			C739.7-561.7,737.4-563.8,734.6-563.8L734.6-563.8z"/>
	</g>
	<g>
		<path class="st18" d="M64.3-393.5c-1.9,0-3.5,1.4-3.5,3.2c0,1.8,1.6,3.2,3.5,3.2c1.9,0,3.5-1.4,3.5-3.2
			C67.8-392.1,66.3-393.5,64.3-393.5L64.3-393.5z"/>
		<path class="st18" d="M218.5-443.5c-3.7,0-6.6,2.7-6.6,6c0,3.4,3,6.1,6.6,6.1c3.7,0,6.6-2.7,6.6-6.1
			C225.1-440.8,222.2-443.5,218.5-443.5L218.5-443.5z"/>
		<path class="st18" d="M299.8-535.2c-1.8,0-3.3,1.4-3.3,3c0,1.7,1.5,3,3.3,3c1.8,0,3.3-1.4,3.3-3
			C303.1-533.9,301.6-535.2,299.8-535.2L299.8-535.2z"/>
		<path class="st17" d="M438.6-548c-2.4,0-4.4,1.8-4.4,3.9c0,2.2,2,3.9,4.4,3.9c2.4,0,4.4-1.8,4.4-3.9C443-546.2,441-548,438.6-548
			L438.6-548z"/>
		<path class="st17" d="M527.2-490c-1.5,0-2.6,1-2.6,2.4c0,1.3,1.2,2.3,2.6,2.3c1.5,0,2.6-1,2.6-2.3
			C529.8-488.9,528.7-490,527.2-490L527.2-490z"/>
		<path class="st17" d="M656-551c-3.7,0-6.8,2.8-6.8,6.2c0,3.4,3.1,6.1,6.8,6.1c3.7,0,6.8-2.8,6.8-6.1
			C662.8-548.2,659.7-551,656-551L656-551z"/>
		<path class="st17" d="M801.6-601.3c-3.3,0-6,2.4-6,5.5c0,3,2.6,5.4,6,5.4c3.3,0,6-2.4,6-5.4C807.6-598.9,804.9-601.3,801.6-601.3
			L801.6-601.3z"/>
		<path class="st17" d="M1152.5-647.6c-2.3,0-4.2,1.7-4.2,3.8c0,2.1,1.9,3.8,4.2,3.8c2.3,0,4.2-1.7,4.2-3.8
			C1156.7-645.9,1154.8-647.6,1152.5-647.6L1152.5-647.6z"/>
		<path class="st17" d="M1262-572c-2.3,0-4.2,1.7-4.2,3.8c0,2.1,1.9,3.7,4.2,3.7c2.3,0,4.2-1.7,4.2-3.7
			C1266.2-570.3,1264.3-572,1262-572L1262-572z"/>
		<path class="st19" d="M1215.6-35.3c-3.5,0-6.3,2.5-6.3,5.7c0,3.2,2.9,5.8,6.3,5.8c3.5,0,6.3-2.6,6.3-5.8
			C1221.9-32.8,1219.1-35.3,1215.6-35.3L1215.6-35.3z"/>
		<path class="st19" d="M1262.3,118.8c-1.2,0-2.2,0.9-2.2,2c0,1.1,1,2.1,2.2,2.1c1.2,0,2.3-0.9,2.3-2.1
			C1264.5,119.7,1263.5,118.8,1262.3,118.8L1262.3,118.8z"/>
		<path class="st18" d="M55.7-225.7c-1.6,0-2.9,1.2-2.9,2.6c0,1.5,1.2,2.6,2.9,2.6c1.6,0,2.9-1.1,2.9-2.6
			C58.5-224.5,57.3-225.7,55.7-225.7L55.7-225.7z"/>
		<path class="st17" d="M142.3-139.1c-2.6,0-4.8,2-4.8,4.4c0,2.4,2.2,4.4,4.8,4.4c2.6,0,4.8-2,4.8-4.4
			C147.1-137.2,144.9-139.1,142.3-139.1L142.3-139.1z"/>
		<path class="st17" d="M301.5-125.4c-1.1,0-2.1,0.8-2.1,1.9c0,1,0.9,1.9,2.1,1.9c1.1,0,2.1-0.8,2.1-1.9
			C303.6-124.5,302.6-125.4,301.5-125.4L301.5-125.4z"/>
		<path class="st17" d="M401.2-55.2c-1.2,0-2.1,0.9-2.1,1.9c0,1.1,0.9,1.9,2.1,1.9c1.2,0,2.1-0.8,2.1-1.9
			C403.3-54.3,402.4-55.2,401.2-55.2L401.2-55.2z"/>
		<path class="st17" d="M456.4-31.6c-1.7,0-3.1,1.2-3.1,2.8c0,1.6,1.4,2.8,3.1,2.8c1.7,0,3.1-1.2,3.1-2.8
			C459.4-30.4,458.1-31.6,456.4-31.6L456.4-31.6z"/>
		<path class="st17" d="M529.8-26.2c-3.1,0-5.7,2.3-5.7,5.1c0,2.9,2.5,5.2,5.7,5.2c3.2,0,5.7-2.3,5.7-5.2
			C535.5-23.9,533-26.2,529.8-26.2L529.8-26.2z"/>
		<path class="st17" d="M683.1-11c-1.1,0-2,0.8-2,1.8c0,1,0.9,1.8,2,1.8c1.1,0,2-0.8,2-1.8C685.1-10.2,684.2-11,683.1-11L683.1-11z"
			/>
		<path class="st19" d="M810.1,39.2c-1.4,0-2.4,1-2.4,2.2c0,1.2,1,2.2,2.4,2.2c1.4,0,2.4-1,2.4-2.2
			C812.5,40.1,811.5,39.2,810.1,39.2L810.1,39.2z"/>
	</g>
	<polygon class="st19" points="758.5,103 759,103.5 759.5,103 759,102.5 	"/>
	<polygon class="st19" points="809.3,67.7 810.7,69 812.2,67.7 810.7,66.4 	"/>
	<g>
		<path class="st17" d="M652.3,81.6c-2.4,0-4.4,1.8-4.4,4c0,2.2,2,4,4.4,4c2.4,0,4.4-1.8,4.4-4C656.7,83.4,654.7,81.6,652.3,81.6
			L652.3,81.6z"/>
	</g>
	<polygon class="st17" points="60.6,-44.5 61.5,-43.7 62.5,-44.5 61.5,-45.3 	"/>
	<path class="st20" d="M752.3-340.5l1.4-0.1L752.3-340.5z"/>
	<path class="st21" d="M728.9-34.3L728.9-34.3L728.9-34.3z"/>
	<polygon class="st22" points="807.1,-111.5 807,-111.2 808.3,-113 	"/>
	<polygon class="st23" points="530.3,-115 530.3,-115 530.3,-114.9 530.3,-114.9 530.7,-115.2 530.9,-115.3 	"/>
</g>
</svg>
