<?xml version="1.0" encoding="utf-8"?>
<!-- Generator: Adobe Illustrator 24.2.3, SVG Export Plug-In . SVG Version: 6.00 Build 0)  -->
<svg version="1.1" id="Layer_1" xmlns="http://www.w3.org/2000/svg" xmlns:xlink="http://www.w3.org/1999/xlink" x="0px" y="0px"
	 viewBox="0 0 100 32.7" style="enable-background:new 0 0 100 32.7;" xml:space="preserve">
<style type="text/css">
	.st0{clip-path:url(#SVGID_2_);}
	.st1{fill:url(#SVGID_3_);}
	.st2{fill:url(#SVGID_4_);}
	.st3{fill:url(#SVGID_5_);}
	.st4{fill:url(#SVGID_6_);}
	.st5{fill:#F9F9F9;}
	.st6{fill:#FCFCFC;}
</style>
<g id="Layer_2_1_">
	<g id="Layer_1-2">
		<g id="PLAY">
			<g>
				<g>
					<defs>
						<path id="SVGID_1_" d="M21.7,14.4l-4.5-2.6l-8.7-5c-0.5-0.3-1-0.1-1,0.5v20.5c0,0.4,0.3,0.6,0.8,0.4l8.9-5.2l4.5-2.6l4.3-2.5
							c0.5-0.3,0.5-0.7,0-0.9C25.6,16.7,21.7,14.4,21.7,14.4z"/>
					</defs>
					<clipPath id="SVGID_2_">
						<use xlink:href="#SVGID_1_"  style="overflow:visible;"/>
					</clipPath>
					<g class="st0">
						
							<linearGradient id="SVGID_3_" gradientUnits="userSpaceOnUse" x1="13.1" y1="227.368" x2="13.1" y2="249.52" gradientTransform="matrix(1 0 0 1 0 -221.068)">
							<stop  offset="0" style="stop-color:#207AB0"/>
							<stop  offset="0.32" style="stop-color:#4A98B5"/>
							<stop  offset="0.78" style="stop-color:#81C0BB"/>
							<stop  offset="1" style="stop-color:#97CFBE"/>
						</linearGradient>
						<polygon class="st1" points="7.5,6.3 7.5,17.4 7.5,28.4 18.7,17.4 						"/>
						
							<linearGradient id="SVGID_4_" gradientUnits="userSpaceOnUse" x1="7.5" y1="232.868" x2="21.672" y2="232.868" gradientTransform="matrix(1 0 0 1 0 -221.068)">
							<stop  offset="0" style="stop-color:#59BBAA"/>
							<stop  offset="1" style="stop-color:#E6E89A"/>
						</linearGradient>
						<polygon class="st2" points="21.7,14.4 17.2,11.8 7.5,6.2 7.5,6.3 18.7,17.4 						"/>
						
							<linearGradient id="SVGID_5_" gradientUnits="userSpaceOnUse" x1="14.6" y1="238.44" x2="14.6" y2="249.6" gradientTransform="matrix(1 0 0 1 0 -221.068)">
							<stop  offset="0" style="stop-color:#E43332"/>
							<stop  offset="0.16" style="stop-color:#D43643"/>
							<stop  offset="0.73" style="stop-color:#A23E7A"/>
							<stop  offset="1" style="stop-color:#8E4190"/>
						</linearGradient>
						<polygon class="st3" points="7.5,28.4 7.5,28.5 17.2,23 21.7,20.3 18.7,17.4 						"/>
						
							<linearGradient id="SVGID_6_" gradientUnits="userSpaceOnUse" x1="22.75" y1="235.468" x2="22.75" y2="241.416" gradientTransform="matrix(1 0 0 1 0 -221.068)">
							<stop  offset="0" style="stop-color:#F08779"/>
							<stop  offset="0.63" style="stop-color:#F8B474"/>
							<stop  offset="1" style="stop-color:#FCCA72"/>
						</linearGradient>
						<polygon class="st4" points="21.7,14.4 18.7,17.4 21.7,20.3 26.8,17.4 						"/>
					</g>
				</g>
			</g>
		</g>
		<path class="st5" d="M77.8,21.7c-0.4,0-0.8-0.1-1.1-0.2c-0.3-0.2-0.7-0.4-0.9-0.7h-0.1c0,0.4,0.1,0.7,0.1,1.1v2.7h-1v-9.3h0.8
			l0.1,0.9l0,0c0.2-0.3,0.5-0.6,0.9-0.8s0.8-0.2,1.1-0.2c0.8,0,1.5,0.3,2,0.9c0.5,0.7,0.7,1.6,0.7,2.5c0.1,0.9-0.2,1.7-0.7,2.5
			C79.3,21.4,78.6,21.7,77.8,21.7z M77.7,15.9c-0.5-0.1-1.1,0.2-1.4,0.5c-0.3,0.5-0.5,1.1-0.5,1.7v0.2c0,0.9,0.1,1.6,0.5,1.9
			c0.4,0.4,0.9,0.6,1.5,0.6c0.5,0,1-0.2,1.3-0.7c0.3-0.6,0.5-1.2,0.5-1.9c0-0.7-0.1-1.3-0.5-1.8C78.7,16.1,78.2,15.8,77.7,15.9
			L77.7,15.9z"/>
		<path class="st5" d="M82.8,21.6h-1v-9.2h1V21.6z"/>
		<path class="st5" d="M88.4,21.6l-0.2-0.9l0,0c-0.3,0.3-0.6,0.6-1,0.8c-0.4,0.2-0.8,0.2-1.2,0.2c-0.5,0-1.1-0.1-1.5-0.5
			s-0.6-0.9-0.5-1.4c0-1.3,1-2,3.1-2h1.1v-0.4c0-0.4-0.1-0.8-0.3-1.1c-0.3-0.3-0.7-0.4-1-0.4c-0.6,0-1.3,0.2-1.8,0.5l-0.3-0.7
			c0.3-0.2,0.7-0.3,1-0.4c0.4-0.1,0.8-0.1,1.1-0.1c0.6,0,1.2,0.1,1.7,0.5c0.4,0.4,0.6,1,0.6,1.6v4.4h-0.8V21.6z M86.2,20.9
			c0.5,0,1-0.2,1.4-0.5c0.4-0.4,0.5-0.9,0.5-1.4v-0.6h-1c-0.6,0-1.2,0.1-1.7,0.4c-0.3,0.2-0.5,0.6-0.5,1c0,0.3,0.1,0.6,0.3,0.8
			C85.5,20.8,85.8,20.9,86.2,20.9L86.2,20.9z"/>
		<path class="st5" d="M89.7,15.1h1l1.4,3.7c0.2,0.6,0.4,1.2,0.6,1.8l0,0c0.1-0.2,0.2-0.5,0.3-1c0.2-0.5,0.7-2,1.6-4.5h1l-2.8,7.4
			c-0.2,0.6-0.5,1.1-1,1.5c-0.4,0.3-0.9,0.5-1.4,0.5c-0.3,0-0.6,0-0.9-0.1v-0.8c0.2,0.1,0.5,0.1,0.7,0.1c0.7,0,1.1-0.4,1.4-1.1
			l0.4-0.9L89.7,15.1z"/>
		<path class="st5" d="M59.7,15.7c0.6,0.4,1,1.1,1,1.8c0,1-0.6,1.5-1.1,1.9c-0.2,0.2-0.4,0.4-0.4,0.7c0,0.2,0.1,0.5,0.4,0.6l0.5,0.4
			c0.6,0.5,1.1,1,1.1,1.9c0,1.3-1.2,2.5-3.5,2.5c-2,0-2.9-0.9-2.9-1.9c0-0.7,0.4-1.3,1-1.6c0.8-0.5,2-0.6,2.6-0.6
			c-0.2-0.2-0.4-0.6-0.4-0.9c0-0.2,0.1-0.4,0.1-0.5c-0.1,0-0.3,0-0.4,0c-1.2,0.1-2.2-0.8-2.2-2v-0.1c0-0.7,0.3-1.4,0.9-1.8
			c0.7-0.5,1.5-0.8,2.4-0.7h2.8l-0.9,0.5h-1V15.7z M58.8,21.7c-0.1,0-0.2,0-0.3,0c-0.5,0-1,0.1-1.4,0.2c-0.3,0.1-1.2,0.4-1.2,1.4
			s0.9,1.6,2.4,1.6c1.3,0,2-0.6,2-1.5C60.3,22.8,59.8,22.5,58.8,21.7L58.8,21.7z M59.2,19.2c0.2-0.3,0.4-0.6,0.3-1
			c0-1-0.6-2.5-1.7-2.5c-0.4,0-0.7,0.2-0.9,0.4c-0.2,0.3-0.3,0.6-0.3,1c0,0.9,0.5,2.4,1.7,2.4C58.6,19.6,59,19.4,59.2,19.2
			L59.2,19.2z"/>
		<path class="st5" d="M51.3,21.5c-1.8,0.1-3.2-1.3-3.3-3.1v-0.1c0-1.8,1.4-3.3,3.5-3.3c1.7,0,3.2,1.4,3.2,3.1v0.1
			c0,1.8-1.5,3.3-3.3,3.3C51.3,21.5,51.3,21.5,51.3,21.5z M52.9,20.4c0.3-0.4,0.4-1,0.4-1.5c0-1.2-0.6-3.4-2.2-3.4
			c-0.4,0-0.9,0.2-1.2,0.5c-0.5,0.4-0.7,1-0.6,1.7c0,1.3,0.7,3.5,2.3,3.5C52.1,21.1,52.6,20.9,52.9,20.4z"/>
		<path class="st5" d="M44,21.5c-1.8,0.1-3.2-1.3-3.3-3.1v-0.1c0-1.8,1.4-3.3,3.5-3.3c1.7,0,3.2,1.4,3.2,3.1v0.1
			C47.4,20.1,45.9,21.5,44,21.5L44,21.5z M45.7,20.4c0.3-0.4,0.4-1,0.4-1.5c0-1.2-0.6-3.4-2.2-3.4c-0.4,0-0.9,0.2-1.2,0.5
			c-0.4,0.4-0.7,1-0.6,1.7c0,1.3,0.7,3.5,2.3,3.5C44.8,21.1,45.3,20.9,45.7,20.4z"/>
		<path class="st5" d="M39.7,21.3l-1.9,0.4C37,21.9,36.2,22,35.5,22c-3.7,0-5.2-2.7-5.2-4.9c0-2.6,2-5.1,5.5-5.1
			c0.7,0,1.4,0.1,2.1,0.3c0.6,0.2,1.2,0.4,1.8,0.8l-1.1,1.1l-0.5,0.1l0.3-0.5c-0.7-0.8-1.8-1.3-2.9-1.3c-2.1,0-3.7,1.6-3.7,4
			c0,2.5,1.8,4.9,4.8,4.9c0.6,0,1.2-0.1,1.7-0.3v-2.2l-2,0.1l1.1-0.6h2.9l-0.4,0.3c-0.1,0-0.1,0.1-0.1,0.2s0,0.5,0,0.6L39.7,21.3z"
			/>
		<path class="st5" d="M64,20.9c-0.4,0-0.5-0.1-0.5-0.6v-7.7v-0.1c0.1-0.5,0.2-0.6,0.6-0.8h-1.9l-1,0.5h1v8.4c0,0.3-0.1,0.3-0.4,0.7
			h2.4l0.5-0.3C64.5,20.9,64.3,20.9,64,20.9z"/>
		<path class="st5" d="M69.5,21c-0.1,0.1-0.3,0.2-0.4,0.2c-0.4,0.2-0.9,0.3-1.3,0.3c-0.6,0-1.3-0.2-1.8-0.5
			c-0.9-0.7-1.4-1.7-1.4-2.8c0-1.7,1.3-3.1,3-3.1h0.1c0.5,0,1,0.1,1.4,0.4c0.5,0.3,0.8,0.8,0.9,1.3l-3.2,1.3l-1,0.1
			c0.3,1.7,1.5,2.7,2.8,2.7c0.6,0,1.1-0.2,1.6-0.5L69.5,21z M68.3,17c0.3-0.1,0.4-0.2,0.4-0.4c-0.1-0.7-0.7-1.2-1.3-1.2
			c-0.5,0-1.5,0.4-1.5,1.9c0,0.2,0,0.5,0,0.7L68.3,17z"/>
		<path class="st5" d="M70.8,15.2V16h-0.1L70.8,15.2l-0.4-0.1V15h0.7v0.1L70.8,15.2L70.8,15.2z"/>
		<path class="st5" d="M72,16v-0.9l0,0L71.8,16h-0.1l-0.3-0.9l0,0V16h-0.1v-1h0.2l0.2,0.8l0,0l0.2-0.8h0.2L72,16L72,16z"/>
		<path class="st6" d="M33,9.4h-0.7c0-0.3-0.1-0.5-0.2-0.8h-1c0,0.2-0.1,0.5-0.1,0.8h-0.6c0.1-0.5,0.3-0.9,0.5-1.3
			c0.2-0.5,0.4-0.9,0.5-1.4h0.8c0.1,0.5,0.3,0.9,0.4,1.4C32.8,8.5,32.9,8.9,33,9.4z M32.1,8.2C32,7.8,31.8,7.4,31.7,7l0,0
			c-0.1,0.4-0.2,0.8-0.4,1.2H32.1z"/>
		<path class="st6" d="M35.7,9.4h-0.5c-0.2-0.3-0.4-0.6-0.6-0.9c-0.3-0.4-0.5-0.8-0.7-1.2l0,0C34,7.6,34,7.8,34,8.1s0,0.8,0,1.3
			h-0.5c0-0.4,0-0.9,0-1.4s0-0.9,0-1.3h0.6c0.1,0.3,0.3,0.6,0.5,0.9c0.3,0.3,0.5,0.7,0.6,1.1l0,0c0-0.3-0.1-0.6-0.1-0.8
			c0-0.4,0-0.8,0-1.2h0.5c0,0.3,0,0.8,0,1.3S35.7,9,35.7,9.4z"/>
		<path class="st6" d="M38.8,7.9c0,0.4-0.1,0.8-0.4,1c-0.3,0.3-0.7,0.5-1.1,0.4c-0.2,0-0.5,0-0.9,0c0-0.4,0-0.9,0-1.4s0-0.9,0-1.3
			H37h0.2c0.4,0,0.8,0.1,1.1,0.4C38.7,7.3,38.8,7.6,38.8,7.9z M38.2,8c0-0.2-0.1-0.5-0.2-0.7C37.8,7.1,37.5,7,37.3,7
			c-0.1,0-0.1,0-0.2,0c0,0.3,0,0.6,0,0.9c0,0.3,0,0.7,0,1c0.1,0,0.2,0,0.3,0c0.3,0,0.5-0.1,0.7-0.3C38.1,8.5,38.2,8.2,38.2,8z"/>
		<path class="st6" d="M41.6,9.4H41c-0.1-0.3-0.2-0.6-0.4-0.9c-0.1-0.1-0.2-0.2-0.4-0.2H40c0,0.4,0,0.7,0,1.1h-0.6
			c0-0.4,0-0.9,0-1.4s0-0.9,0-1.3H40h0.4c0.6,0,1,0.2,1,0.7c0,0.3-0.2,0.6-0.5,0.7l0,0c0.2,0.1,0.3,0.2,0.4,0.3
			C41.3,8.7,41.5,9,41.6,9.4z M40.8,7.5c0-0.3-0.2-0.4-0.5-0.4c-0.1,0-0.2,0-0.4,0c0,0.2,0,0.5,0,0.8h0.2
			C40.6,7.9,40.8,7.8,40.8,7.5z"/>
		<path class="st6" d="M44.6,8c0,0.4-0.1,0.8-0.4,1.1c-0.2,0.3-0.6,0.4-1,0.4s-0.7-0.1-0.9-0.4c-0.3-0.3-0.4-0.6-0.4-1
			c0-0.4,0.1-0.8,0.4-1.1c0.2-0.3,0.6-0.4,1-0.4S44,6.7,44.2,7C44.5,7.2,44.6,7.6,44.6,8z M44,8c0-0.3-0.1-0.5-0.2-0.7
			C43.7,7.1,43.5,7,43.2,7c-0.2,0-0.4,0.1-0.5,0.3c-0.1,0.2-0.2,0.4-0.2,0.7c0,0.3,0.1,0.5,0.2,0.7C42.9,8.9,43.1,9,43.3,9
			s0.4-0.1,0.5-0.3C44,8.5,44,8.3,44,8z"/>
		<path class="st6" d="M45.8,9.4h-0.6c0-0.4,0-0.9,0-1.4s0-0.9,0-1.3h0.6c0,0.4,0,0.8,0,1.3S45.8,9,45.8,9.4z"/>
		<path class="st6" d="M48.8,7.9c0,0.4-0.1,0.8-0.4,1c-0.3,0.3-0.7,0.5-1.1,0.4c-0.2,0-0.5,0-0.9,0c0-0.4,0-0.9,0-1.4s0-0.9,0-1.3
			H47h0.2c0.4,0,0.8,0.1,1.1,0.4C48.7,7.3,48.8,7.6,48.8,7.9z M48.3,8c0-0.2-0.1-0.5-0.2-0.7C47.9,7.1,47.7,7,47.4,7
			c-0.1,0-0.2,0-0.2,0c0,0.3,0,0.6,0,0.9c0,0.3,0,0.7,0,1c0.1,0,0.2,0,0.3,0c0.3,0,0.5-0.1,0.7-0.3C48.2,8.5,48.3,8.3,48.3,8L48.3,8
			z"/>
		<path class="st6" d="M52.9,9.4h-0.7c0-0.3-0.1-0.5-0.2-0.8h-1c-0.1,0.3-0.2,0.5-0.2,0.8h-0.6c0.1-0.5,0.3-0.9,0.5-1.3
			c0.2-0.5,0.4-0.9,0.5-1.4H52c0.1,0.5,0.3,0.9,0.4,1.4C52.6,8.5,52.8,8.9,52.9,9.4z M51.9,8.2c-0.1-0.4-0.3-0.8-0.4-1.2l0,0
			c-0.1,0.4-0.2,0.8-0.4,1.2H51.9z"/>
		<path class="st6" d="M55.3,7.4c0,0.3-0.1,0.6-0.4,0.7c-0.3,0.2-0.6,0.2-0.9,0.2h-0.1c0,0.3,0,0.6,0,1h-0.6c0-0.4,0-0.9,0-1.4
			s0-0.9,0-1.3H54h0.4c0.2,0,0.5,0.1,0.7,0.2C55.2,7,55.3,7.2,55.3,7.4z M54.8,7.5c0-0.3-0.2-0.4-0.6-0.4c-0.1,0-0.2,0-0.3,0
			c0,0.3,0,0.6,0,0.9H54C54.5,8,54.8,7.8,54.8,7.5L54.8,7.5z"/>
		<path class="st6" d="M57.8,7.4c0,0.3-0.1,0.6-0.4,0.7c-0.3,0.2-0.6,0.2-0.9,0.2h-0.2c0,0.3,0,0.6,0,1h-0.6c0-0.4,0-0.9,0-1.4
			s0-0.9,0-1.3h0.7h0.4c0.2,0,0.5,0.1,0.7,0.2C57.7,7,57.8,7.2,57.8,7.4z M57.3,7.5c0-0.3-0.2-0.4-0.6-0.4c-0.1,0-0.2,0-0.3,0
			c0,0.3,0,0.6,0,0.9h0.1C57,8,57.3,7.8,57.3,7.5z"/>
		<path class="st6" d="M62,8c0,0.4-0.1,0.8-0.4,1.1c-0.2,0.3-0.6,0.4-1,0.4s-0.7-0.1-0.9-0.4c-0.3-0.3-0.4-0.6-0.4-1
			c0-0.4,0.1-0.8,0.4-1.1c0.2-0.3,0.6-0.4,1-0.4s0.7,0.1,0.9,0.4C61.8,7.2,62,7.6,62,8z M61.4,8c0-0.3-0.1-0.5-0.2-0.7
			C61,7.1,60.8,7,60.6,7s-0.4,0.1-0.5,0.3C60,7.5,59.9,7.7,59.9,8c0,0.3,0.1,0.5,0.2,0.7S60.4,9,60.6,9c0.2,0,0.4-0.1,0.5-0.3
			C61.3,8.5,61.4,8.3,61.4,8z"/>
		<path class="st6" d="M64.8,9.4h-0.5c-0.2-0.3-0.4-0.6-0.6-0.9c-0.3-0.4-0.5-0.8-0.7-1.2l0,0c0,0.3,0,0.5,0,0.8s0,0.8,0,1.3h-0.5
			c0-0.4,0-0.9,0-1.4s0-0.9,0-1.3h0.6c0.1,0.3,0.3,0.6,0.5,0.9c0.3,0.3,0.5,0.7,0.6,1.1l0,0c0-0.3,0-0.6,0-0.8c0-0.4,0-0.8,0-1.2
			h0.5c0,0.3,0,0.8,0,1.3S64.8,9,64.8,9.4z"/>
	</g>
</g>
</svg>
